<svg xmlns="http://www.w3.org/2000/svg" xmlns:xlink="http://www.w3.org/1999/xlink"><symbol id="icon__socials_tg" viewBox="0 0 40 40"><path d="M9.719 18.693c6.71-2.85 11.185-4.729 13.425-5.636 6.393-2.592 7.72-3.042 8.587-3.057.19-.003.616.043.892.261.233.184.297.433.327.608.031.174.07.572.039.883-.347 3.547-1.846 12.157-2.608 16.13-.323 1.681-.958 2.245-1.573 2.3-1.337.12-2.352-.86-3.647-1.688-2.026-1.294-3.17-2.1-5.138-3.363-2.272-1.46-.799-2.262.496-3.573.34-.344 6.23-5.565 6.343-6.039.015-.059.028-.28-.107-.396-.134-.117-.333-.077-.476-.045-.204.045-3.44 2.13-9.71 6.255-.92.615-1.751.914-2.497.898-.822-.017-2.403-.453-3.578-.825-1.442-.457-2.588-.698-2.488-1.474.052-.404.623-.817 1.713-1.24Z"/></symbol><symbol id="icon__socials_wa"><path d="M15.99 13.786c.237.009.499.02.747.57.17.376.456 1.077.684 1.636.167.412.303.746.338.816.083.165.139.358.028.579l-.047.095a1.868 1.868 0 0 1-.284.455c-.055.064-.113.133-.17.203-.114.138-.229.277-.328.376-.166.164-.34.343-.146.674.194.33.86 1.411 1.846 2.287 1.06.941 1.982 1.34 2.45 1.54.09.04.164.072.218.099.332.165.525.137.719-.083.193-.22.829-.964 1.05-1.295.221-.33.443-.275.747-.165.304.11 1.935.91 2.267 1.074l.182.09c.23.11.387.185.453.296.084.138.084.798-.193 1.57-.277.771-1.631 1.515-2.24 1.57a6.831 6.831 0 0 0-.176.02c-.562.065-1.272.148-3.804-.846-3.12-1.225-5.175-4.26-5.597-4.884l-.07-.102-.004-.005c-.18-.239-1.351-1.798-1.351-3.41 0-1.521.75-2.319 1.096-2.686a9.05 9.05 0 0 0 .065-.069c.224-.255.545-.404.885-.413h.036c.21 0 .417 0 .6.008Z"/><path fill-rule="evenodd" clip-rule="evenodd" d="m6.667 33.333 1.883-6.847a13.145 13.145 0 0 1-1.772-6.606c.003-7.286 5.959-13.213 13.277-13.213 3.523 0 6.901 1.393 9.391 3.873a13.189 13.189 0 0 1 3.887 9.35c-.003 7.286-5.96 13.215-13.277 13.215h-.006c-2.217 0-4.398-.554-6.345-1.609l-7.038 1.837Zm7.364-4.23.404.238a11.06 11.06 0 0 0 5.617 1.532h.004c6.082 0 11.033-4.928 11.035-10.984.003-6.067-4.936-10.988-11.031-10.99-6.087 0-11.038 4.926-11.04 10.982a10.918 10.918 0 0 0 1.687 5.845l.263.415-1.115 4.053 4.176-1.09Z"/></symbol><symbol id="img__logo" viewBox="0 0 185 35"><g fill="none"><path fill-rule="evenodd" clip-rule="evenodd" d="M180.905 12.546v2.79h.651v-.94h.561l.466.94h.715l-.558-1.078a.968.968 0 0 0 .308-.294.894.894 0 0 0 .144-.514.87.87 0 0 0-.138-.501.887.887 0 0 0-.345-.303.933.933 0 0 0-.41-.1h-1.394Zm.651 1.369h.529c.09 0 .181-.04.269-.118.091-.078.135-.193.135-.348 0-.162-.044-.27-.135-.332a.452.452 0 0 0-.259-.092h-.539v.89Z" fill="#fff"/><path fill-rule="evenodd" clip-rule="evenodd" d="M180.798 16.765a2.95 2.95 0 0 0 1.176.235c.419 0 .812-.078 1.177-.235a3.045 3.045 0 0 0 1.613-1.614c.156-.366.236-.757.236-1.176 0-.42-.08-.81-.236-1.175a3.045 3.045 0 0 0-1.613-1.615 2.964 2.964 0 0 0-1.177-.234c-.418 0-.81.078-1.176.234a3.031 3.031 0 0 0-1.613 1.615 2.957 2.957 0 0 0-.235 1.175c0 .419.079.81.235 1.176.156.366.373.687.65.963.277.277.597.495.963.651Zm2.321-.823a2.185 2.185 0 0 1-1.145.31c-.418 0-.799-.104-1.146-.31a2.33 2.33 0 0 1-.823-.823 2.202 2.202 0 0 1-.307-1.144c0-.42.103-.798.307-1.143.204-.344.479-.62.823-.825a2.197 2.197 0 0 1 1.146-.307c.419 0 .801.1 1.145.307.343.205.618.48.821.825.205.345.306.723.306 1.143 0 .419-.101.8-.306 1.144a2.324 2.324 0 0 1-.821.823Z" fill="#fff"/><path d="m50.077 15.762 4.149-4.148 11.32.001 5.66 5.661-.002 8.003-5.66 5.66-11.32-.001-4.19-4.191 2.344-2.344 3.22 3.219 8.573.002 3.718-3.718v-.973H57.25l-3.316-3.314h13.956v-.97l-3.716-3.719h-8.574l-3.178 3.177-2.344-2.345ZM76.243 30.939V11.614h3.315V30.94h-3.315ZM80.09 19.619h13.325v-8.005h3.315V30.94h-3.315v-8.006h-10.01l-3.316-3.314Z" fill="#fff"/><path fill-rule="evenodd" clip-rule="evenodd" d="m124.407 17.273-5.661-5.659-11.32.001-5.659 5.661v8.003l5.661 5.66 11.32-.001 5.659-5.661v-8.004ZM108.8 14.93h8.573l3.718 3.717.001 5.257-3.718 3.718-8.573.002-3.719-3.718v-5.258l3.718-3.718ZM129.444 11.614v19.324h17.709l3.316-3.314.001-4.69-2.345-2.345.971-.971v-4.69l-3.316-3.314h-16.336Zm3.315 16.009V14.929h11.648l1.374 1.374v1.941l-1.374 1.374h-11.116l3.315 3.316h9.176l1.372 1.374v1.941l-1.373 1.374h-13.022Z" fill="#fff"/><path d="m158.051 14.93-4.29 16.009h3.433l4.289-16.01h8.932l2.146 8.004H160.19l3.315 3.316h9.944l1.257 4.69h3.432l-4.29-16.01-3.316-3.315-9.168.001-3.313 3.314Z" fill="#fff"/><path d="m24.377 3.608-2.345-2.344h-3.315l-2.344 2.344v3.316l2.344 2.344h3.315l2.345-2.344V3.608ZM8.368 11.612l2.344-2.344h3.316l2.345 2.344v3.316l2.344 2.344h3.315l2.345-2.344v-3.316l2.345-2.344h3.315l2.344 2.344v3.316l-2.345 2.344h-3.315l-2.344 2.345v3.316l2.345 2.345h3.314l2.345-2.345v-3.316l2.345-2.345h3.315l2.345 2.345v3.316l-2.345 2.345h-3.316l-2.344 2.344v3.315l-2.345 2.345h-3.314l-2.345-2.345v-3.315l-2.345-2.345h-3.315l-2.344 2.345v3.315l-2.345 2.345h-3.315l-2.345-2.345v-3.315l-2.345-2.345H2.708L.363 22.933v-3.315l2.344-2.345h3.316l2.345 2.345v3.316l2.345 2.345h3.315l2.345-2.345v-3.316l-2.345-2.345h-3.315l-2.345-2.344v-3.316Z" fill="#3C9"/></g></symbol>
</svg>