<svg width="180" height="120" viewBox="0 0 180 120" fill="none" xmlns="http://www.w3.org/2000/svg">
<path fill-rule="evenodd" clip-rule="evenodd" d="M82.2204 68.5115V68.0446C82.2204 67.1538 81.778 66.7053 80.3763 66.7053H78.8506V66.3735H78.3305V66.7053H76.8233C75.4123 66.7053 74.9699 67.08 74.9699 68.0446V68.5115C74.9699 69.4648 75.4706 69.7955 76.8233 69.7955H78.3305V70.1641H78.8506V69.7955H80.3763C81.7217 69.7955 82.2204 69.4822 82.2204 68.5115ZM81.6982 68.5115C81.6982 69.2334 81.349 69.4248 80.3763 69.4248H78.8506V67.0811H80.3763C81.3009 67.0811 81.6982 67.2971 81.6982 68.0251V68.5115ZM78.3305 69.4248H76.8233C75.8485 69.4248 75.4768 69.2334 75.4768 68.5074V68.0087C75.4768 67.291 75.8843 67.0811 76.8233 67.0811H78.3305V69.4248Z" fill="#414245"/>
<path d="M66.5502 68.4173V70.1651H67.0632V66.4165H66.5502V68.0415H62.1063V66.4165H61.5872V70.1651H62.1063V68.4173H66.5502Z" fill="#414245"/>
<path d="M68.811 70.1651V66.4165H73.2375V66.7903H69.3219V68.0415H73.134V68.4122H69.3219V69.7883H73.2375V70.1651H68.811Z" fill="#414245"/>
<path d="M89.136 66.4165V66.7903H86.6919V70.1651H86.1748V66.7903H83.7491V66.4165H89.136Z" fill="#414245"/>
<path fill-rule="evenodd" clip-rule="evenodd" d="M95.6605 66.4176V70.1662H95.1383V68.6118H92.646L91.0466 70.1662H90.3278L92.0276 68.6118C91.0466 68.6118 90.5347 68.2821 90.5347 67.5777C90.5347 66.7258 91.0466 66.4176 92.2907 66.4176H95.6605ZM92.1269 68.2402H95.1383V66.7903H92.0767C91.3385 66.7903 91.0466 66.9961 91.0466 67.5777C91.0466 68.1357 91.3272 68.2402 92.1269 68.2402Z" fill="#414245"/>
<path d="M102.504 68.4173V70.1651H103.023V66.4165H102.504V68.0415H98.0626V66.4165H97.5445V70.1651H98.0626V68.4173H102.504Z" fill="#414245"/>
<path fill-rule="evenodd" clip-rule="evenodd" d="M107.78 66.4176L110.369 70.1651H109.763L109.127 69.2241H105.611L104.967 70.1651H104.395L106.984 66.4176H107.78ZM105.891 68.8412H108.856L107.37 66.6869L105.891 68.8412Z" fill="#414245"/>
<path fill-rule="evenodd" clip-rule="evenodd" d="M116.277 68.6108V70.1641H116.797V66.4165H113.424C112.18 66.4165 111.672 66.7247 111.672 67.5766C111.672 68.2811 112.18 68.6108 113.157 68.6108L111.468 70.1651H112.18L113.787 68.6108H116.277ZM113.216 66.7903H116.277V68.2402H113.266C112.461 68.2402 112.18 68.1367 112.18 67.5777C112.18 66.9951 112.484 66.7903 113.216 66.7903Z" fill="#414245"/>
<path d="M123.684 68.2012L127.301 70.1651H126.393L123.167 68.4019H122.307V70.1651H121.789V66.4165H122.307V68.0251H123.147L126.305 66.4165H127.219L123.684 68.2012Z" fill="#414245"/>
<path fill-rule="evenodd" clip-rule="evenodd" d="M134.544 67.7067V68.8791C134.544 69.946 134.064 70.1651 132.734 70.1651H130.552C129.194 70.1651 128.69 69.8426 128.69 68.8791V67.7067C128.69 66.7555 129.132 66.3735 130.552 66.3735H132.734C133.948 66.3735 134.544 66.6172 134.544 67.7067ZM132.734 69.7894C133.786 69.7894 134.03 69.6132 134.03 68.8791V67.6831C134.03 66.9418 133.732 66.7565 132.734 66.7565H130.548C129.608 66.7565 129.21 66.9541 129.21 67.6831V68.8791C129.21 69.601 129.572 69.7894 130.548 69.7894H132.734Z" fill="#414245"/>
<path d="M143.002 66.7206V70.1651H143.521V66.4165H142.408L139.888 69.6132L137.354 66.4165H136.248V70.1651H136.762V66.7206H137.054L139.75 70.1651H140.016L142.715 66.7206H143.002Z" fill="#414245"/>
<path d="M150.851 66.4165V70.1651H150.329V66.7903H145.9V70.1651H145.373V66.4165H150.851Z" fill="#414245"/>
<path fill-rule="evenodd" clip-rule="evenodd" d="M156.959 69.2241L157.595 70.1651H158.19L155.6 66.4176H154.814L152.218 70.1651H152.791L153.443 69.2241H156.959ZM153.717 68.8402L155.205 66.6858L156.687 68.8402H153.717Z" fill="#414245"/>
<path d="M165.149 66.4165V70.1651H164.634V68.4173H160.199V70.1651H159.674V66.4165H160.199V68.0415H164.634V66.4165H165.149Z" fill="#414245"/>
<path d="M172.405 66.4165V70.1651H171.882V66.7063H171.691L167.728 70.1651H166.886V66.4165H167.398V69.8723H167.444L171.395 66.4165H172.405Z" fill="#414245"/>
<path fill-rule="evenodd" clip-rule="evenodd" d="M179.169 66.4176V70.1662H178.659V68.6118H176.16L174.567 70.1662H173.837L175.545 68.6118C174.567 68.6118 174.047 68.2821 174.047 67.5777C174.047 66.7258 174.567 66.4176 175.803 66.4176H179.169ZM175.642 68.2402H178.659V66.7903H175.585C174.851 66.7903 174.567 66.9961 174.567 67.5777C174.567 68.1357 174.838 68.2402 175.642 68.2402Z" fill="#414245"/>
<path fill-rule="evenodd" clip-rule="evenodd" d="M73.7033 76.1695C72.8013 75.5643 61.5421 75.7169 61.5421 75.7169L61.4019 86.3709L65.9061 86.5204L66.0536 83.5172C66.0536 83.5172 69.3516 83.8192 72.2012 83.6697C73.6733 83.591 74.5854 82.5557 75.1031 81.4067C75.1229 81.6462 75.1566 81.9009 75.2073 82.1707C75.6558 84.5677 78.8034 86.3719 80.755 86.677C82.7035 86.9719 85.5592 86.9719 88.4068 86.0658C90.3962 85.4412 90.9279 83.7908 91.0676 82.088C91.1652 83.2514 91.5628 84.4477 92.6099 85.1708C94.5595 86.5204 97.7172 87.574 100.713 86.9719C103.214 86.471 105.616 85.5513 106.603 83.7767L106.564 86.5204H111.518V82.9203H116.313V86.5204H120.819V75.7169H116.011V79.6191H111.367V76.0128H106.713L106.67 79.098C105.792 77.7269 104.308 75.9868 102.21 75.8684C101.934 75.8521 101.648 75.8341 101.354 75.8155C98.9346 75.6629 96.0304 75.4796 94.5605 76.0128C92.9048 76.619 91.5665 78.1139 91.2624 79.4645C91.2098 79.7038 91.1567 79.9945 91.1159 80.3184L91.1157 80.2323C91.1154 80.1289 91.1151 80.0268 91.1151 79.9263C91.1151 77.6624 88.5583 75.7179 83.7541 75.4148C78.961 75.1179 76.862 77.22 75.6558 78.5685L75.6552 78.5694L75.6549 78.5675C75.5044 77.3726 74.6054 76.7644 73.7033 76.1695ZM106.657 79.9518L106.619 82.6192H101.914C101.914 82.6192 100.559 84.4223 98.9122 84.2698C98.9122 84.2698 97.4019 84.7254 96.3564 83.2264C95.312 81.7181 95.4585 80.3696 96.5059 79.017C97.5657 77.6624 100.409 78.1129 100.711 78.716C101.009 79.317 101.459 80.216 101.459 80.216L106.657 79.9518ZM80.1601 81.4172C79.8857 79.4789 81.5055 78.2655 82.8561 78.2655C84.2046 78.2655 86.4501 78.4171 86.3016 80.9707C86.1659 83.3319 86.0319 83.3753 84.9385 83.7294C84.8522 83.7573 84.76 83.7872 84.6613 83.8203C83.3097 84.2698 80.6075 84.7255 80.1601 81.4172ZM66.1986 78.716L66.0532 80.5191C66.0532 80.5191 69.6513 81.2676 70.4008 80.5191C71.1514 79.7706 70.5493 78.5685 69.3523 78.5685C68.1543 78.5685 66.1986 78.716 66.1986 78.716Z" fill="#414245"/>
<path d="M122.322 75.7169L135.677 75.8685V78.5686H127.576V79.6191H134.33V82.6192H127.272V83.9749H135.975V86.8225H122.471L122.322 75.7169Z" fill="#414245"/>
<path fill-rule="evenodd" clip-rule="evenodd" d="M142.576 75.7169H147.23C147.23 75.7169 146.932 76.4695 147.54 76.321C148.072 76.1853 151.419 76.0429 152.955 77.1226C152.974 76.6535 153.068 76.247 153.083 76.1801L153.085 76.173L153.085 76.1705H165.689L166.59 77.2721V76.321L170.933 76.1705V79.1665C170.933 79.1665 176.641 78.8686 177.693 79.4645C178.743 80.0666 179.791 80.9707 179.941 82.0141C180.089 83.0708 179.791 84.7254 178.743 85.6204C177.693 86.5204 176.495 87.1204 175.285 87.1204H166.59V78.4109L166.13 79.0171H161.78V86.972H156.98V79.0171C156.98 79.0171 155.444 78.8905 154.148 78.751C154.707 79.9841 154.726 81.318 153.832 82.3202C152.626 83.6708 151.578 84.2698 150.836 84.2698C150.078 84.2698 147.54 84.4213 147.54 84.4213V86.8225H142.576V84.2698C142.576 84.2698 139.424 84.1203 138.374 83.8203C137.328 83.5182 135.374 82.3202 135.374 80.3707C135.374 78.418 136.423 76.7654 137.929 76.619C139.423 76.4705 142.277 76.4705 142.277 76.4705L142.576 75.7169ZM142.576 79.017L142.427 81.2676C142.427 81.2676 140.029 81.5686 140.029 80.6737C140.029 79.7696 140.48 78.8685 142.576 79.017ZM147.681 81.2686L147.539 79.1665C149.177 79.017 150.529 79.7696 149.787 80.8201C149.031 81.8707 147.681 81.2686 147.681 81.2686ZM171.391 84.1203V82.3202C171.391 82.3202 173.489 81.8697 174.837 82.1707C176.189 82.4707 175.136 84.1203 174.387 84.1203H171.391Z" fill="#414245"/>
<path fill-rule="evenodd" clip-rule="evenodd" d="M0.0234375 26.1986H7.67935V52.1603L0.0234375 45.4044V26.1986ZM9.18146 17.6467H16.5333V60.5647L9.18146 53.5037V17.6467ZM18.0364 9.09589H25.5397V49.7571H18.0364V9.09589ZM27.0347 0.541992H34.837V41.3558H27.0347V0.541992ZM35.8886 8.64025H43.394V49.7571H35.8886V8.64025ZM45.1951 17.4901H52.5469V53.3552L45.1951 60.5647V17.4901ZM53.8934 26.0481H61.4029V44.8064L53.8934 52.1603V26.0481V26.0481Z" fill="#414245"/>
<path fill-rule="evenodd" clip-rule="evenodd" d="M18.0361 50.6644H25.5395V88.3152H18.0361V50.6644ZM27.0344 42.562H34.3842V88.3152H27.0344V42.562ZM35.8883 50.8077H43.3937V88.3152H35.8883V50.8077Z" fill="#BCB441"/>
</svg>
