<svg width="190" height="120" viewBox="0 0 190 120" fill="none" xmlns="http://www.w3.org/2000/svg">
<g clip-path="url(#clip0_442_15236)">
<path d="M70.7435 33.1545H58.6851V64.7781H65.0073V37.0945H70.7435V33.1545Z" fill="#0079C2"/>
<path fill-rule="evenodd" clip-rule="evenodd" d="M77.0813 64.7781H70.8912L74.1882 33.1545H84.1265L87.4235 64.7781H81.2362L80.6479 56.3796H77.6668L77.0813 64.7781ZM78.9761 37.0945L77.8925 52.9064H80.4225L79.3389 37.0945H78.9761Z" fill="#0079C2"/>
<path d="M96.4779 59.6716V53.71H90.1529V59.1272C90.1529 61.3563 90.4121 64.7781 94.8443 64.7781H100.08C104.513 64.7781 104.798 61.3566 104.798 59.1274V52.7508C104.798 51.6359 104.746 48.3702 100.495 48.4739V48.1627C102.388 48.2406 104.798 47.3073 104.798 43.8598V38.8055C104.798 36.6021 104.513 33.1545 100.08 33.1545H94.8443C90.4121 33.1545 90.1529 36.6021 90.1529 38.8055V43.2896H96.4779V38.1314C96.4779 37.3018 97.1 37.0945 97.4625 37.0945C98.0589 37.0945 98.4737 37.587 98.4737 38.1314V44.4045C98.4737 46.3487 97.8257 46.7635 96.0371 46.7635H93.3672V50.2367H95.9334C98.2922 50.2367 98.4737 51.3253 98.4737 52.3105V59.6716C98.4737 60.216 98.0589 60.7085 97.4628 60.7085C97.1 60.7085 96.4779 60.4753 96.4779 59.6716Z" fill="#0079C2"/>
<path d="M123.591 33.1545H108.946V64.7781H115.271V37.0945H117.266V64.7781H123.591V33.1545Z" fill="#0079C2"/>
<path fill-rule="evenodd" clip-rule="evenodd" d="M134.063 64.7781H127.738V33.1545H137.692C142.099 33.1545 142.384 36.6021 142.384 38.8055V48.3699C142.384 50.5993 142.098 54.0209 137.692 54.0209H134.063V64.7781ZM134.063 37.0948V50.5476L134.892 50.5474C135.567 50.5474 136.059 49.9775 136.059 48.9663V38.6759C136.059 37.6647 135.566 37.0948 134.893 37.0948H134.063Z" fill="#0079C2"/>
<path fill-rule="evenodd" clip-rule="evenodd" d="M151.223 64.7781C146.816 64.7781 146.531 61.3566 146.531 59.1274V38.8055C146.531 36.6021 146.816 33.1545 151.223 33.1545H156.485C160.891 33.1545 161.176 36.6021 161.176 38.8055V59.1272C161.176 61.3563 160.891 64.7781 156.485 64.7781H151.223ZM153.841 60.7085C154.437 60.7085 154.852 60.216 154.852 59.6716V38.1314C154.852 37.587 154.437 37.0945 153.841 37.0945C153.478 37.0945 152.856 37.3018 152.856 38.1314V59.6716C152.856 60.4753 153.478 60.7085 153.841 60.7085Z" fill="#0079C2"/>
<path d="M190 33.1545H181.758L177.662 55.3947L173.541 33.1545H165.324V64.7781H171.648V44.9486H171.882L175.122 64.7781H180.176L183.442 44.9486H183.676V64.7781H190V33.1545Z" fill="#0079C2"/>
<path fill-rule="evenodd" clip-rule="evenodd" d="M43.3739 5.54455C44.6905 7.59008 48.7568 13.9074 50.4888 21.4903C52.4226 29.9664 52.3863 35.1763 51.5439 41.1382C50.0301 51.8175 45.175 60.0088 43.0626 62.7563C41.6213 60.8898 39.4078 57.0796 37.9301 53.5544C37.9301 53.5544 35.1491 46.7889 34.413 40.2049C33.6714 33.647 33.9876 26.9594 36.1365 19.4165C38.1039 12.6772 41.9738 6.58544 43.0314 5.00439C43.1018 5.12189 43.2188 5.30358 43.3739 5.54455ZM40.4626 50.1585C40.6025 55.4464 42.0802 58.8422 43.0314 60.6308C44.0138 58.816 45.7038 54.7986 45.5613 49.718C45.3513 44.5078 43.5939 40.6977 43.0626 39.7904C42.4663 40.6974 40.4263 45.0782 40.4626 50.1585ZM48.9751 44.5858C49.4675 42.538 49.8539 39.1164 49.9265 35.8761C49.9938 32.6617 49.6751 27.1669 48.0963 21.4383C46.5099 15.71 43.4515 10.2406 42.995 9.54053C42.5389 10.2406 40.1101 14.6731 37.9639 21.5939C37.4013 23.6677 36.3751 28.2038 36.2038 32.5844C35.9991 37.8982 36.7248 43.2117 37.0153 44.6894C37.0153 42.9268 37.0463 37.0426 38.1402 32.1955C39.2288 27.3482 41.3079 21.7495 42.9953 18.898C44.8225 21.8791 47.1114 28.3591 47.92 32.2215C48.729 36.1096 49.1513 41.0605 48.9751 44.5858Z" fill="#0079C2"/>
<path d="M31.5949 64.7262H54.6541V86.3183C48.8894 92.4615 40.6931 96.3238 31.5949 96.3238C14.145 96.3238 0 82.171 0 64.7262C0 47.2813 14.145 33.1545 31.5949 33.1545V56.8981C27.0537 56.8981 22.5123 58.609 19.0493 62.0823C18.2418 62.8923 17.5135 63.7776 16.8744 64.7262C12.219 71.621 12.9422 81.0821 19.0493 87.1736C22.5123 90.6472 27.0537 92.3578 31.5949 92.3578C36.1157 92.3578 40.6362 90.6472 44.0966 87.2256C44.1122 87.1996 44.1304 87.1736 44.1485 87.1736C44.1563 87.1605 44.1641 87.154 44.172 87.1475C44.1797 87.1411 44.1874 87.1347 44.1952 87.122C47.6634 83.6484 47.6634 78.0237 44.1952 74.5761C40.7244 71.1029 35.0994 71.1029 31.6312 74.5761C31.6248 74.5761 31.619 74.5825 31.6132 74.589C31.6074 74.5955 31.6015 74.6021 31.5949 74.6021V64.7262Z" fill="#0079C2"/>
<path d="M180.311 89.5896H178.645V86.2225H180.311V89.5896Z" fill="#0079C2"/>
<path d="M126.451 88.327H126.035V82.0137H127.284V87.906L126.451 88.327Z" fill="#0079C2"/>
<path d="M121.387 82.014H122.659V88.327H122.242L121.387 87.906V82.014Z" fill="#0079C2"/>
<path fill-rule="evenodd" clip-rule="evenodd" d="M58.6849 74.0172H190V96.3238H58.6849V74.0172ZM181.166 83.6973H178.645V78.2259H175.686V92.1151C176.688 92.0202 177.678 92.082 178.602 92.1396C181.438 92.3165 183.654 92.4547 183.687 87.906V87.0644L183.27 85.3809L182.854 84.5392L181.166 83.6973ZM154.642 80.7511H156.746V78.2259H149.183V80.7511H151.288V92.1151H154.642V80.7511ZM126.035 79.4885V78.2259H122.659V79.4885H120.555L119.283 80.3302L118.45 81.1721L118.034 82.8557V87.4854L118.45 89.1689L119.283 90.0106L120.555 90.8522H122.659V92.1148H126.035V90.8522H128.139L129.389 90.0106L130.244 89.1689L130.66 87.4854V82.8557L130.244 81.1721L129.389 80.3302L128.139 79.4885H126.035ZM98.6688 80.7511V78.2259H92.7765V92.1148H99.0898V89.5896H96.1436V86.2225H98.6688V83.6973H96.1436V80.7511H98.6688ZM70.0489 83.6973H68.3653V78.2259H64.9982V92.1151H68.3653V86.2225H70.0489V92.1151H72.995V78.2259H70.0489V83.6973Z" fill="#0079C2"/>
</g>
<defs>
<clipPath id="clip0_442_15236">
<rect width="190" height="120" fill="white"/>
</clipPath>
</defs>
</svg>
