<svg width="180" height="120" viewBox="0 0 180 120" fill="none" xmlns="http://www.w3.org/2000/svg">
<g clip-path="url(#clip0_442_15260)">
<path fill-rule="evenodd" clip-rule="evenodd" d="M158.413 70.1479V64.7516C158.413 64.7516 162.919 65.8586 162.919 61.5502V47.6165H179.502V70.1278H173.492V52.8942H168.986V61.5512C168.986 61.5512 170.191 72.7561 158.413 70.1479V70.1479ZM140.503 42.6374L144.02 41.2539C144.02 41.2539 144.14 43.1311 146.59 43.1311C149.041 43.1311 149.219 41.2539 149.219 41.2539L152.778 42.6374C152.778 42.6374 151.849 46.3335 146.59 46.3335C141.332 46.3335 140.503 42.6374 140.503 42.6374V42.6374ZM136.431 70.0886H142.48L150.781 56.5902V70.0886H156.609V47.5773H150.523L142.262 61.1952V47.5773H136.452L136.431 70.0886ZM92.103 70.0886V47.5773H98.1499V57.0839L104.414 47.5773H111.588L103.525 58.4483L112.063 70.0886H104.435L98.1499 60.5025V70.0886H92.103ZM74.3747 70.0886L77.5178 63.8034L69.5123 47.5773H76.6672L80.6397 57.0447L84.0191 47.5773H90.7185L80.877 70.0886H74.3747V70.0886ZM46.9819 70.1077V64.7124C46.9819 64.7124 51.4884 65.8184 51.4884 61.51V47.5773H68.0695V70.0876H62.0618V52.8549H57.5563V61.511C57.5563 61.511 58.7609 72.7169 46.9819 70.1077V70.1077Z" fill="black"/>
<path fill-rule="evenodd" clip-rule="evenodd" d="M126.372 47.5772C122.48 43.4869 122.143 41.095 122.143 41.095C122.143 41.095 121.655 43.9405 118.138 47.5772C114.621 51.2139 109.521 55.5625 109.521 59.9475C109.521 64.3324 112.801 71.7284 122.142 71.7284C131.483 71.7284 134.777 64.2176 134.777 59.9475C134.778 55.6764 130.266 51.6684 126.372 47.5772V47.5772ZM116.55 52.9534C116.442 53.2299 115.582 55.3846 115.423 57.0044C115.266 58.6252 115.323 61.0755 115.323 61.4515C115.323 61.8276 115.265 62.0649 114.869 61.8065C114.475 61.5501 112.814 60.3637 113.21 57.677C113.604 54.9894 115.452 53.3983 116.362 52.608C116.362 52.608 116.51 52.4692 116.598 52.519C116.688 52.5678 116.658 52.6769 116.55 52.9534V52.9534Z" fill="black"/>
<path fill-rule="evenodd" clip-rule="evenodd" d="M0.498535 39.5737V80.8983H42.2785V39.5737H0.498535ZM13.5625 46.3727C13.5625 46.3727 13.6811 44.0601 15.9545 44.0601C18.2268 44.0601 18.3263 46.3727 18.3263 46.3727V62.4993C18.3263 62.4993 18.3541 63.9613 19.9663 63.9613C21.5784 63.9613 21.4885 62.4993 21.4885 62.4993V46.3727C21.4885 46.3727 21.7057 44.0601 23.9197 44.0601C26.1337 44.0601 26.3107 46.3727 26.3107 46.3727V62.4993C26.3107 62.4993 26.2322 68.4275 19.9672 68.7442C13.6821 68.5653 13.5443 62.4993 13.5443 62.4993L13.5625 46.3727V46.3727ZM10.3611 74.97C10.3611 74.97 5.53888 74.97 5.53888 70.2454V46.3717C5.53888 46.3717 5.53888 44.0591 7.94998 44.0591C10.3611 44.0591 10.341 46.3717 10.341 46.3717V68.7442C10.341 68.7442 10.163 70.2454 12.001 70.2454H33.4837L28.3056 57.5967C28.3056 57.5967 27.4751 55.4038 28.3056 53.9016C29.1351 52.3995 32.6532 46.3717 32.6532 46.3717C32.6532 46.3717 33.6215 44.0591 35.4404 44.0591C37.2592 44.0591 38.3059 46.0158 37.5549 47.3802C36.8038 48.7436 33.4043 54.5742 33.4043 54.5742C33.4043 54.5742 32.5346 55.7798 33.4043 57.4207C34.8271 60.8201 40.5984 74.971 40.5984 74.971H10.3611V74.97V74.97Z" fill="#CC2229"/>
<path fill-rule="evenodd" clip-rule="evenodd" d="M47.7532 75.9794H51.9544V72.6498H52.8634V80.8446H51.9544V76.8386H47.7532V80.8446H46.8433V72.6498H47.7532V75.9794ZM59.7216 73.5099H56.3795V75.9421H59.6231V76.8022H56.3795V79.9845H59.7216V80.8446H55.4706V72.6498H59.7216V73.5099V73.5099ZM65.4221 79.6898H65.2011C62.1547 79.6898 61.4419 77.8222 61.4419 76.4951C61.4419 75.168 62.1547 73.3004 65.2011 73.3004H65.4221V72.3187H66.3311V73.3004H66.5521C69.5995 73.3004 70.3113 75.168 70.3113 76.4951C70.3113 77.8222 69.5985 79.6898 66.5521 79.6898H66.3311V80.8446H65.4221V79.6898ZM65.4221 74.1615H65.1762C62.9402 74.1615 62.3748 75.4512 62.3748 76.4951C62.3748 77.539 62.9402 78.8287 65.1762 78.8287H65.4221V74.1615V74.1615ZM66.3311 78.8287H66.577C68.813 78.8287 69.3784 77.539 69.3784 76.4951C69.3784 75.4512 68.813 74.1615 66.577 74.1615H66.3311V78.8287ZM74.4905 73.5099V80.8446H73.5806V73.5099H71.5905V72.6498H76.4807V73.5099H74.4905V73.5099ZM79.9213 77.2079C79.5529 77.1706 78.9874 77.0481 78.5454 76.6912C77.9551 76.2128 77.8326 75.5737 77.8326 75.0207C77.8326 74.283 78.0661 73.7558 78.3981 73.3865C79.0362 72.6737 79.9461 72.6488 80.437 72.6488H82.3534V80.8437H81.4445V77.2557H80.9527L78.6181 80.8437H77.5121L79.9213 77.2079V77.2079ZM80.5604 73.5099C80.1308 73.5099 79.5529 73.5338 79.1597 73.9395C78.8992 74.2289 78.7586 74.6066 78.7664 74.9958C78.7664 75.5479 78.976 75.8933 79.2333 76.1009C79.5768 76.3717 80.0935 76.4453 80.4867 76.4453H81.4454V73.509H80.5604V73.5099ZM85.8686 75.9794H90.0709V72.6498H90.9798V80.8446H90.0709V76.8386H85.8686V80.8446H84.9597V72.6498H85.8686V75.9794ZM98.1079 78.535H94.6194L93.6368 80.8446H92.6293L96.4 72.2565L100.074 80.8446H99.0666L98.1079 78.535V78.535ZM97.7519 77.6739L96.3751 74.394L94.9753 77.6739H97.7519ZM103.441 77.2079C103.073 77.1706 102.508 77.0481 102.065 76.6912C101.475 76.2128 101.353 75.5737 101.353 75.0207C101.353 74.283 101.587 73.7558 101.918 73.3865C102.557 72.6737 103.467 72.6488 103.959 72.6488H105.874V80.8437H104.966V77.2557H104.474L102.141 80.8437H101.035L103.441 77.2079ZM104.08 73.5099C103.651 73.5099 103.073 73.5338 102.68 73.9395C102.419 74.2286 102.278 74.6064 102.286 74.9958C102.286 75.5479 102.496 75.8933 102.753 76.1009C103.097 76.3717 103.614 76.4453 104.007 76.4453H104.966V73.509H104.08V73.5099V73.5099ZM112.741 76.1631L116.232 72.6498H117.46L113.627 76.4712L117.583 80.8446H116.329L112.975 77.0845L112.741 77.3179V80.8446H111.833V72.6498H112.741V76.1631V76.1631ZM118.863 76.7534C118.863 74.3088 120.767 72.5149 123.126 72.5149C125.484 72.5149 127.388 74.3088 127.388 76.7534C127.388 79.1865 125.497 80.9929 123.126 80.9929C120.755 80.9929 118.863 79.1865 118.863 76.7534ZM119.796 76.7534C119.796 78.6335 121.284 80.1318 123.126 80.1318C124.968 80.1318 126.456 78.6335 126.456 76.7534C126.456 74.8733 124.968 73.375 123.126 73.375C121.284 73.375 119.796 74.8733 119.796 76.7534ZM129.27 80.8446L130.633 72.1953L133.778 79.1119L136.984 72.1829L138.262 80.8446H137.328L136.554 75.1441L133.766 81.1881L131.014 75.1441L130.202 80.8446H129.27V80.8446ZM146.668 72.6498V80.8446H145.758V73.5099H141.557V80.8446H140.647V72.6498H146.668V72.6498ZM153.796 78.535H150.307L149.325 80.8446H148.317L152.088 72.2565L155.762 80.8446H154.754L153.796 78.535V78.535ZM153.441 77.6739L152.064 74.394L150.664 77.6739H153.441ZM158.319 75.9794H162.521V72.6498H163.431V80.8446H162.521V76.8386H158.319V80.8446H157.409V72.6498H158.319V75.9794ZM171.737 74.5911L166.038 81.213V72.6498H166.946V78.9282L172.647 72.3053V80.8446H171.737V74.5911V74.5911ZM176.971 77.2079C176.603 77.1706 176.038 77.0481 175.595 76.6912C175.005 76.2128 174.883 75.5737 174.883 75.0207C174.883 74.283 175.117 73.7558 175.448 73.3865C176.087 72.6737 176.995 72.6488 177.487 72.6488H179.404V80.8437H178.494V77.2557H178.002L175.669 80.8437H174.565L176.971 77.2079ZM177.61 73.5099C177.18 73.5099 176.603 73.5338 176.21 73.9395C175.949 74.2286 175.808 74.6064 175.816 74.9958C175.816 75.5479 176.026 75.8933 176.283 76.1009C176.626 76.3717 177.142 76.4453 177.537 76.4453H178.494V73.509H177.61V73.5099Z" fill="black"/>
</g>
<defs>
<clipPath id="clip0_442_15260">
<rect width="180" height="42.7869" fill="white" transform="translate(0 39)"/>
</clipPath>
</defs>
</svg>
