<svg width="250" height="120" viewBox="0 0 250 120" fill="none" xmlns="http://www.w3.org/2000/svg">
<path d="M35.4148 47.5654C36.3274 48.7612 37.1 50.0603 37.7169 51.4367L20.2167 64.5107L12.9028 59.8643V54.2744L20.2167 58.9208L35.4148 47.5654Z" fill="#21A038"/>
<path d="M5.43842 59.4696C5.43842 59.2187 5.44445 58.9696 5.45652 58.7218L1.02414 58.5017C1.00905 58.8228 1.00001 59.1469 1.00001 59.4741C0.99812 62.0303 1.49423 64.5616 2.45989 66.9229C3.42555 69.2843 4.84174 71.4292 6.62723 73.2346L9.77123 70.0498C8.39682 68.6625 7.3065 67.0136 6.56293 65.1979C5.81936 63.3822 5.4372 61.4354 5.43842 59.4696Z" fill="url(#paint0_linear_442_15219)"/>
<path d="M20.2123 44.4971C20.4597 44.4971 20.7055 44.5062 20.9499 44.5185L21.1717 40.0249C20.854 40.0096 20.5341 40.002 20.2123 40.002C17.6888 39.9988 15.1898 40.5009 12.8584 41.4793C10.5271 42.4577 8.40938 43.8932 6.62695 45.7034L9.77095 48.8897C11.1399 47.4963 12.7671 46.391 14.559 45.6371C16.3509 44.8833 18.2721 44.4958 20.2123 44.4971Z" fill="url(#paint1_linear_442_15219)"/>
<path d="M20.2124 74.4426C19.965 74.4426 19.7191 74.4426 19.4733 74.4227L19.2515 78.9147C19.5703 78.931 19.8906 78.9393 20.2124 78.9393C22.7348 78.9419 25.2327 78.4395 27.5628 77.4608C29.8929 76.4821 32.0092 75.0464 33.7903 73.2363L30.6523 70.0515C29.2831 71.4441 27.6561 72.5489 25.8646 73.3025C24.073 74.056 22.1522 74.4435 20.2124 74.4426Z" fill="url(#paint2_linear_442_15219)"/>
<path d="M28.5404 47.1096L32.2757 44.3193C28.8615 41.5174 24.5998 39.9922 20.2065 40V44.4966C23.1814 44.4929 26.0873 45.404 28.5404 47.1096Z" fill="url(#paint3_linear_442_15219)"/>
<path d="M39.4239 59.4695C39.4263 58.2998 39.3254 57.132 39.1221 55.9805L34.987 59.0689C34.987 59.202 34.987 59.335 34.987 59.4695C34.9881 61.5615 34.5554 63.6305 33.717 65.5421C32.8786 67.4538 31.6531 69.1656 30.1201 70.5665L33.1027 73.9074C35.0957 72.0839 36.6883 69.8564 37.7773 67.3693C38.8663 64.882 39.4273 62.1906 39.4239 59.4695Z" fill="#21A038"/>
<path d="M20.2124 74.4426C18.148 74.4433 16.1065 74.0047 14.2199 73.155C12.3335 72.3054 10.6441 71.0636 9.26117 69.5103L5.96631 72.5314C7.7653 74.5516 9.96315 76.1658 12.4174 77.2698C14.8716 78.3736 17.5273 78.9424 20.2124 78.9392V74.4426Z" fill="url(#paint4_linear_442_15219)"/>
<path d="M10.3053 48.3725L7.32423 45.0317C5.33067 46.8548 3.73748 49.0822 2.64798 51.5694C1.55849 54.0566 0.99703 56.7482 1.00001 59.4695H5.43843C5.43751 57.3776 5.87029 55.3087 6.70868 53.397C7.54708 51.4854 8.77242 49.7736 10.3053 48.3725Z" fill="url(#paint5_linear_442_15219)"/>
<path d="M62.6621 66.8103C64.2039 66.8194 65.7231 66.4384 67.079 65.7027L68.2165 65.0787L71.5031 67.5319C69.3216 69.8768 66.0998 71.1647 62.4138 71.1647C58.886 71.1647 55.6715 69.9165 53.3606 67.6509C52.2043 66.4985 51.2915 65.1246 50.6768 63.6109C50.062 62.0972 49.7578 60.475 49.7825 58.8409C49.755 57.2233 50.0606 55.6175 50.6799 54.1234C51.2993 52.6294 52.219 51.2792 53.3821 50.1573C55.6824 47.9783 58.904 46.7805 62.457 46.7805C65.7327 46.7805 68.5945 47.7798 70.7363 49.6666L70.9846 49.8434L67.3129 52.5528C65.9559 51.587 64.3263 51.0814 62.6621 51.1097C58.0473 51.1097 54.6996 54.4179 54.6996 58.9637C54.6996 63.5093 58.0473 66.8103 62.6621 66.8103Z" fill="#21A038"/>
<path fill-rule="evenodd" clip-rule="evenodd" d="M80.2025 56.5758H86.5896C92.3899 56.5758 95.5834 59.1362 95.5834 63.7911C95.5834 68.6568 92.0576 71.4468 85.914 71.4468H74.9561V47.0626H95.8899L90.3962 51.1328H80.2025V56.5758ZM80.2025 67.3877H85.6777C88.9008 67.3877 90.5586 66.2554 90.5586 64.0095C90.5586 61.7634 89.0006 60.6311 85.6777 60.6311H80.2025V67.3877Z" fill="#21A038"/>
<path d="M117.366 47.0765L111.869 51.1343H104.218V57.099H115.433V61.1568H104.218V67.4029H117.366V71.4608H98.9683V47.0765H117.366Z" fill="#21A038"/>
<path fill-rule="evenodd" clip-rule="evenodd" d="M130.889 47.073H120.875V71.4572H126.124V64.5496H130.889C137.279 64.5496 141.231 61.1809 141.231 55.7983C141.231 50.4158 137.279 47.073 130.889 47.073ZM130.779 60.4886H126.124V51.134H130.779C134.139 51.134 135.994 52.7961 135.994 55.8131C135.994 58.8302 134.139 60.4886 130.779 60.4886Z" fill="#21A038"/>
<path fill-rule="evenodd" clip-rule="evenodd" d="M162.044 56.5758H155.66V51.1328H169.38V47.0626H150.41V71.4468H161.354C167.497 71.4468 171.023 68.6568 171.023 63.7911C171.037 59.1362 167.844 56.5758 162.044 56.5758ZM161.132 67.3877H155.66V60.6311H161.132C164.455 60.6311 166.012 61.7634 166.012 64.0095C166.012 66.2554 164.369 67.3877 161.132 67.3877Z" fill="#21A038"/>
<path d="M225.377 71.412H230.699V61.8219H233.964L241.882 71.412H248.943L238.17 58.6276L247.448 47.0277H241.417L233.595 57.2693H230.699V47.0277H225.377V71.412Z" fill="#21A038"/>
<path fill-rule="evenodd" clip-rule="evenodd" d="M190.356 66.7779H179.099L177.19 71.5131H171.527L182.086 47.1288H187.748L198.134 71.5131H192.264L190.356 66.7779ZM188.593 62.3597L184.761 52.8894L180.907 62.3597H188.593Z" fill="#21A038"/>
<path d="M205.299 57.3113V47.1288H199.812V71.5131H205.299V61.9048H216.311V71.5131H221.798V47.1288H216.311V57.3113H205.299Z" fill="#21A038"/>
<defs>
<linearGradient id="paint0_linear_442_15219" x1="7.52487" y1="72.6735" x2="2.55909" y2="58.5091" gradientUnits="userSpaceOnUse">
<stop offset="0.14" stop-color="#F1E813"/>
<stop offset="0.3" stop-color="#E6E418"/>
<stop offset="0.58" stop-color="#C9DA26"/>
<stop offset="0.89" stop-color="#A2CC39"/>
</linearGradient>
<linearGradient id="paint1_linear_442_15219" x1="7.8942" y1="46.4984" x2="20.4261" y2="41.7861" gradientUnits="userSpaceOnUse">
<stop offset="0.06" stop-color="#0FA7DF"/>
<stop offset="0.54" stop-color="#0098F8"/>
<stop offset="0.92" stop-color="#0290EA"/>
</linearGradient>
<linearGradient id="paint2_linear_442_15219" x1="18.9588" y1="76.2253" x2="33.1008" y2="73.0729" gradientUnits="userSpaceOnUse">
<stop offset="0.12" stop-color="#A2CC39"/>
<stop offset="0.28" stop-color="#86C239"/>
<stop offset="0.87" stop-color="#219F38"/>
</linearGradient>
<linearGradient id="paint3_linear_442_15219" x1="19.2833" y1="41.506" x2="31.3862" y2="45.1913" gradientUnits="userSpaceOnUse">
<stop offset="0.06" stop-color="#0290EA"/>
<stop offset="0.79" stop-color="#0C89CA"/>
</linearGradient>
<linearGradient id="paint4_linear_442_15219" x1="7.07968" y1="71.9841" x2="20.2656" y2="76.8467" gradientUnits="userSpaceOnUse">
<stop offset="0.13" stop-color="#F1E813"/>
<stop offset="0.3" stop-color="#EAE616"/>
<stop offset="0.53" stop-color="#D8DF1F"/>
<stop offset="0.8" stop-color="#BAD52D"/>
<stop offset="0.98" stop-color="#A2CC39"/>
</linearGradient>
<linearGradient id="paint5_linear_442_15219" x1="2.65348" y1="60.0138" x2="8.05331" y2="46.1534" gradientUnits="userSpaceOnUse">
<stop offset="0.07" stop-color="#A2CC39"/>
<stop offset="0.26" stop-color="#81C45E"/>
<stop offset="0.92" stop-color="#0FA7DF"/>
</linearGradient>
</defs>
</svg>
