<svg width="250" height="120" viewBox="0 0 250 120" fill="none" xmlns="http://www.w3.org/2000/svg">
<path d="M0.0356445 72.7034V35H50.8823L32.4342 55.6813H15.4883L0.0356445 72.7034Z" fill="#00AEEF"/>
<path fill-rule="evenodd" clip-rule="evenodd" d="M139.462 60.2508C139.031 59.1432 138.444 58.1925 137.7 57.3853C136.955 56.5871 136.076 55.9728 135.063 55.5378C134.049 55.1029 132.973 54.8876 131.83 54.8876C131.758 54.8876 131.689 54.8916 131.618 54.8959L131.606 54.8966C131.574 54.8966 131.543 54.8943 131.513 54.892C131.483 54.8898 131.455 54.8876 131.426 54.8876C130.399 54.8876 129.493 55.0401 128.704 55.3495C127.911 55.6589 127.224 56.0535 126.646 56.5333C126.35 56.78 126.085 57.049 125.848 57.327C125.987 56.3943 126.467 54.5692 128.094 53.7576C128.875 53.3675 129.807 53.0805 130.924 52.9684C132.341 52.8338 133.579 52.6769 134.623 52.5065C135.673 52.3361 136.556 52.0626 137.278 51.6859C138 51.3092 138.552 50.8025 138.937 50.1612C139.323 49.52 139.561 48.6545 139.65 47.5559H134.48C134.458 47.8519 134.22 48.0357 133.798 48.1882C133.509 48.2946 132.847 48.3641 132.042 48.4487C131.049 48.5531 129.837 48.6804 128.839 48.9281C127.18 49.3361 125.875 50.0043 124.911 50.8653C123.946 51.7262 123.202 52.7352 122.691 53.9011C122.18 55.067 121.852 56.3629 121.713 57.7934C121.574 59.2239 121.503 60.7126 121.503 62.2642C121.503 63.5691 121.628 64.8561 121.884 66.1386C122.139 67.4166 122.601 68.5735 123.26 69.6049C123.924 70.6318 124.825 71.4658 125.969 72.1071C127.108 72.7483 128.552 73.0667 130.296 73.0667C130.334 73.0667 130.371 73.0656 130.408 73.0645C130.445 73.0633 130.482 73.0622 130.52 73.0622C130.557 73.0622 130.592 73.064 130.629 73.0653C130.65 73.0661 130.672 73.0667 130.695 73.0667C132.135 73.0667 133.444 72.8559 134.606 72.4344C135.767 72.0129 136.758 71.403 137.574 70.6183C138.39 69.8291 139.014 68.8784 139.444 67.7574C139.874 66.6363 140.09 65.3807 140.09 63.9861C140.108 62.6005 139.892 61.3628 139.462 60.2508ZM128.041 68.0309C127.31 67.1071 126.942 65.7529 126.942 63.9682C126.942 62.2328 127.301 60.8696 128.023 59.892C128.704 58.9638 129.637 58.4885 130.798 58.4346C132.018 58.4885 132.982 58.9548 133.664 59.8696C134.386 60.8427 134.745 62.1969 134.745 63.9323C134.745 65.717 134.377 67.0713 133.646 68.0085C132.955 68.8919 132.018 69.3448 130.857 69.3941C129.677 69.3493 128.736 68.9053 128.041 68.0309Z" fill="black"/>
<path d="M159.538 64.5107H159.462L153.964 47.6007H143.076V73.0532H149.977V54.1477L156.081 73.0532H162.435L168.874 54.0087V73.0532H175.775V47.6007H165.296L159.538 64.5107Z" fill="black"/>
<path fill-rule="evenodd" clip-rule="evenodd" d="M239.124 56.5109C240.945 56.5109 244.958 56.7262 247.483 59.4167C248.895 60.9458 249.415 62.8382 249.415 64.6946C249.415 67.708 248.263 69.5286 247.223 70.5107C244.77 72.838 240.46 73.0532 237.783 73.0532H229.537V47.6052H246.375V52.511H236.451V56.5109H239.124ZM238.232 68.2596C238.9 68.2596 240.272 68.2192 241.277 67.4928C242.317 66.726 242.505 65.7439 242.501 64.8067C242.501 64.0803 242.353 63.0265 241.496 62.2597C240.532 61.4211 239.048 61.3135 238.232 61.3135H236.447V68.2596H238.232Z" fill="black"/>
<path d="M50.8823 85.8467V48.1433L35.4252 65.1654H18.4793L0.0356445 85.8467H50.8823Z" fill="black"/>
<path d="M94.9024 47.6007H119.072V73.0532H112.171V52.5109H101.804V73.0532H94.9024V47.6007Z" fill="black"/>
<path d="M85.9205 63.5781C85.6739 64.7619 85.2031 65.7529 84.4901 66.5152C83.7188 67.3358 82.665 67.7484 81.3152 67.8022C80.387 67.7574 79.5753 67.5645 78.9162 67.2058C78.1494 66.7888 77.5171 66.2282 77.0417 65.5422C76.7996 65.1924 75.7996 63.6005 75.7996 60.2956C75.7996 57.0221 76.7996 55.3988 77.0417 55.0401C77.5171 54.345 78.1449 53.78 78.9117 53.363C79.5709 53.0042 80.378 52.8114 81.3018 52.7666C81.7995 52.7935 82.2793 52.8697 82.7367 53.0267C83.2883 53.224 83.7815 53.493 84.212 53.8338C84.647 54.1746 85.0102 54.5782 85.2972 55.0311C85.5797 55.4751 85.7636 55.9683 85.8398 56.5019L85.8443 56.5109H92.4899L92.4765 56.3988C92.315 54.9952 91.9159 53.7307 91.2837 52.6365C90.6559 51.5424 89.8487 50.6142 88.8801 49.8743C87.916 49.1388 86.8084 48.5649 85.5797 48.1837C84.3555 47.8025 83.0596 47.6052 81.7278 47.6052C81.7031 47.6052 81.6784 47.6064 81.6538 47.6075C81.6291 47.6086 81.6045 47.6097 81.5798 47.6097C81.5484 47.6097 81.5181 47.6086 81.4879 47.6075C81.4576 47.6064 81.4273 47.6052 81.3959 47.6052H81.3466C81.2928 47.6052 81.248 47.6097 81.1941 47.6097C81.1628 47.6097 81.1325 47.6086 81.1022 47.6075C81.0719 47.6064 81.0417 47.6052 81.0103 47.6052C79.1045 47.6052 77.3781 47.9371 75.8758 48.5918C74.3736 49.2465 73.0867 50.1657 72.0418 51.3227C71.006 52.4706 70.1988 53.8428 69.6472 55.3899C69.0957 56.9369 68.8177 58.614 68.8177 60.3808C68.8177 62.1341 69.0957 63.7843 69.6472 65.2955C70.1988 66.8157 71.006 68.1609 72.0463 69.2865C73.0867 70.421 74.3736 71.3223 75.8758 71.9636C77.3781 72.6093 79.1045 72.9366 81.0058 72.9366C81.0372 72.9366 81.0663 72.9344 81.0955 72.9322C81.1246 72.9299 81.1538 72.9277 81.1852 72.9277C81.2121 72.9277 81.2379 72.9299 81.2636 72.9322C81.2894 72.9344 81.3152 72.9366 81.3421 72.9366H81.3914C81.4206 72.9366 81.4509 72.9344 81.4811 72.9322C81.5114 72.9299 81.5417 72.9277 81.5708 72.9277C81.5977 72.9277 81.6235 72.9299 81.6493 72.9322C81.6751 72.9344 81.7009 72.9366 81.7278 72.9366C83.2434 72.9366 84.656 72.708 85.9295 72.255C87.2075 71.8021 88.3375 71.134 89.2882 70.264C90.2388 69.4031 91.0191 68.3493 91.5931 67.134C92.0998 66.0803 92.4271 64.883 92.5975 63.5781H85.9205Z" fill="black"/>
<path d="M226.698 63.5781C226.528 64.883 226.201 66.0803 225.694 67.134C225.111 68.3493 224.335 69.4031 223.384 70.264C222.429 71.134 221.299 71.8021 220.026 72.255C218.757 72.708 217.344 72.9366 215.829 72.9366C215.802 72.9366 215.776 72.9344 215.75 72.9322C215.724 72.9299 215.698 72.9277 215.672 72.9277C215.64 72.9277 215.611 72.9299 215.582 72.9322C215.553 72.9344 215.524 72.9366 215.492 72.9366H215.438C215.431 72.9366 215.423 72.9365 215.416 72.9362C215.411 72.936 215.406 72.9358 215.401 72.9355C215.386 72.9346 215.371 72.9333 215.357 72.932C215.341 72.9307 215.326 72.9293 215.311 72.9285C215.301 72.928 215.291 72.9277 215.281 72.9277C215.253 72.9277 215.224 72.9298 215.195 72.932C215.165 72.9343 215.134 72.9366 215.102 72.9366C213.201 72.9366 211.47 72.6093 209.972 71.9636C208.47 71.3223 207.183 70.421 206.143 69.2865C205.107 68.1609 204.3 66.8157 203.748 65.2955C203.201 63.7843 202.918 62.1341 202.918 60.3808C202.918 58.614 203.201 56.9369 203.748 55.3899C204.3 53.8428 205.107 52.4706 206.143 51.3227C207.183 50.1657 208.474 49.2465 209.972 48.5918C211.474 47.9371 213.201 47.6052 215.107 47.6052C215.122 47.6052 215.137 47.6055 215.151 47.6059C215.167 47.6063 215.183 47.6069 215.199 47.6075C215.229 47.6086 215.259 47.6097 215.29 47.6097C215.296 47.6097 215.302 47.6097 215.308 47.6096C215.313 47.6095 215.318 47.6094 215.323 47.6092C215.331 47.609 215.34 47.6087 215.348 47.6083L215.365 47.6075L215.367 47.6075C215.391 47.6064 215.416 47.6052 215.443 47.6052H215.497L215.523 47.6055C215.546 47.6059 215.569 47.6067 215.591 47.6075L215.619 47.6085C215.64 47.6092 215.661 47.6097 215.681 47.6097C215.69 47.6097 215.699 47.6096 215.708 47.6094L215.722 47.6089C215.734 47.6085 215.745 47.608 215.757 47.6075C215.781 47.6064 215.806 47.6052 215.833 47.6052C217.16 47.6052 218.456 47.8025 219.681 48.1837C220.909 48.5649 222.021 49.1388 222.981 49.8743C223.945 50.6142 224.757 51.5424 225.384 52.6365C226.012 53.7307 226.411 54.9952 226.573 56.3988L226.586 56.5109H219.927V56.5019C219.846 55.9683 219.663 55.4751 219.38 55.0311C219.093 54.5782 218.73 54.1746 218.299 53.8338C217.869 53.493 217.376 53.224 216.824 53.0267C216.367 52.8697 215.887 52.7935 215.389 52.7666C214.47 52.8114 213.658 53.0042 212.999 53.363C212.232 53.78 211.6 54.345 211.129 55.0401C210.891 55.3988 209.887 57.0221 209.887 60.2956C209.887 63.6005 210.882 65.1924 211.125 65.5422C211.6 66.2282 212.232 66.7888 212.999 67.2058C213.658 67.5645 214.47 67.7574 215.398 67.8022C216.743 67.7484 217.797 67.3358 218.568 66.5152C219.281 65.7529 219.752 64.7619 219.999 63.5781H226.698Z" fill="black"/>
<path d="M178.744 47.6007H202.914V52.3988H194.286V73.0532H187.376V52.3988H178.744V47.6007Z" fill="black"/>
</svg>
