<svg width="82" height="120" viewBox="0 0 82 120" fill="none" xmlns="http://www.w3.org/2000/svg">
<g clip-path="url(#clip0_442_15232)">
<path d="M75.0221 40.0872C76.49 42.2773 77.7453 44.6027 78.7709 47.0316C78.7709 47.032 78.7718 47.0306 78.7728 47.0311C79.8482 49.5366 80.6651 52.1454 81.2105 54.8169C81.7573 57.505 82.0317 60.2414 82.0295 62.9845C82.0272 64.3484 81.9563 65.7114 81.817 67.0682C81.6754 68.4574 81.4724 69.8397 81.2086 71.2111L81.1139 71.7069L68.9433 80.5217L66.9744 96.1787H45.9769L45.2135 96.6876C44.6256 97.1435 43.9641 97.4955 43.2576 97.7284H43.2529C42.5381 97.9637 41.7873 98.0767 41.0001 98.0767C40.1965 98.0767 39.4467 97.9637 38.7323 97.7284H38.7272C38.0417 97.5033 37.4007 97.1648 36.7867 96.7077L35.9276 96.1787H15.1239L13.1236 80.5245L0.889585 71.7069L0.791067 71.2209C0.514025 69.8462 0.307382 68.4583 0.171942 67.0625C0.038366 65.7073 -0.0287943 64.3463 -0.0292969 62.9845C-0.0292969 60.2204 0.240111 57.5021 0.777527 54.8397C1.3203 52.164 2.13089 49.5497 3.19706 47.0362C4.22215 44.6013 5.47746 42.2699 6.9459 40.0737C8.41844 37.8758 10.1025 35.8274 11.9741 33.9576C13.8341 32.0986 15.8695 30.4238 18.0519 28.9565C20.2486 27.48 22.5807 26.2157 25.0168 25.1806C27.5829 24.088 30.1911 23.2728 32.8478 22.733C35.5312 22.1906 38.2624 21.9195 41.0001 21.9239C43.7563 21.9239 46.4802 22.1956 49.1678 22.7424C51.8487 23.2893 54.4675 24.1062 56.9839 25.1806C59.4107 26.211 61.7332 27.4713 63.9198 28.9444C66.0938 30.4109 68.122 32.0829 69.9953 33.9576C69.9972 33.9585 69.9944 33.9613 69.9953 33.9623C71.8613 35.8399 73.5445 37.8908 75.0221 40.0872V40.0872Z" fill="white"/>
<path fill-rule="evenodd" clip-rule="evenodd" d="M77.602 47.5288C75.5821 42.7546 72.7358 38.5309 69.0944 34.8587C65.452 31.2168 61.2288 28.3705 56.485 26.3506C51.5278 24.2392 46.3553 23.1985 40.9999 23.1985C35.6136 23.1985 30.4724 24.2392 25.5143 26.3506C20.7704 28.3705 16.5164 31.2168 12.875 34.8587C9.20271 38.5309 6.38677 42.7546 4.36691 47.5288C2.28588 52.4561 1.24561 57.6281 1.24561 62.984C1.24561 65.616 1.49027 68.2475 2.04122 70.9715L14.3131 79.8152L16.2409 94.903H36.2864L37.4798 95.637C38.5206 96.4331 39.6528 96.7996 40.9994 96.7996C42.3156 96.7996 43.4787 96.4331 44.4882 95.637L45.5896 94.903H65.8498L67.7474 79.8152L79.958 70.9715C80.4786 68.2475 80.7541 65.6155 80.7541 62.984C80.7541 57.6281 79.7138 52.4561 77.602 47.5288V47.5288Z" fill="#CC2229"/>
<path fill-rule="evenodd" clip-rule="evenodd" d="M71.7265 52.0582C70.9304 48.6918 69.2168 45.8147 66.554 43.489L47.9168 75.5924L64.4118 40.398C62.2085 37.4906 59.4233 35.5015 55.9042 34.3688L44.4887 74.2762L52.8441 32.7467C50.2425 31.3082 47.4881 30.5737 44.5499 30.5737L42.6832 30.6961L41.0308 73.9083L39.2864 30.6961L37.45 30.5737C34.5122 30.5737 31.7271 31.3082 29.1563 32.7467L37.4192 74.2762L26.0961 34.3693C22.5765 35.502 19.7307 37.491 17.5885 40.3985L34.1756 75.5929L15.4459 43.4894C12.7835 45.8151 11.0695 48.6922 10.2739 52.0587L31.1458 77.7043L9.66177 56.1283C8.68219 58.3321 8.19287 60.6274 8.19287 62.9839C8.19287 64.2997 8.34602 65.707 8.71301 67.2071L20.771 76.021L22.3627 87.8642H37.0219L39.1029 89.4555C39.6847 89.8533 40.2968 90.0372 41.0004 90.0676C41.6737 90.0377 42.3166 89.8533 42.8368 89.4555L45.0401 87.8642H59.7604L61.2606 76.021L73.2873 67.2071C73.624 65.707 73.8079 64.2997 73.8079 62.9839C73.8079 60.6274 73.2873 58.3321 72.339 56.1283L50.9778 77.7033L71.7265 52.0582V52.0582Z" fill="#F6D330"/>
</g>
<defs>
<clipPath id="clip0_442_15232">
<rect width="82" height="120" fill="white"/>
</clipPath>
</defs>
</svg>
