<svg width="248" height="120" viewBox="0 0 248 120" fill="none" xmlns="http://www.w3.org/2000/svg">
<path d="M31.4278 82.9855C32.5147 82.9855 33.0582 82.2609 33.2393 81.3551C33.4205 81.7174 33.7828 82.0797 34.1451 82.2609C34.5075 82.2609 35.0509 82.2609 35.4133 82.0797C35.7756 81.8986 36.1379 81.5363 36.319 81.1739C36.5002 80.8116 36.5002 80.2681 36.319 79.9058C36.8625 80.6304 37.5872 80.8116 38.493 80.4493C39.5799 79.9058 39.9422 79.1812 39.3988 78.0942C38.7647 76.5544 38.1306 75.0598 37.4966 73.5652C36.8626 72.0708 36.2284 70.576 35.5944 69.0362C35.5038 68.8551 35.4585 68.7192 35.4133 68.5833C35.368 68.4475 35.3227 68.3116 35.2321 68.1304C35.1415 68.0399 35.0962 67.9493 35.0509 67.8587C35.0056 67.7681 34.9604 67.6776 34.8698 67.587C34.8698 67.475 34.8006 67.4322 34.705 67.3731C34.6459 67.3366 34.5767 67.2938 34.5075 67.2247C36.3373 67.391 37.2507 68.0156 37.8086 68.3972L37.887 68.4507C37.9083 68.4652 37.9292 68.4792 37.9495 68.4928C38.1306 68.6739 38.1306 68.6739 38.6741 68.4928H39.3988C39.5799 68.6739 39.9422 68.8551 40.1234 68.8551L42.2973 70.4855C42.6596 70.8478 43.022 71.2102 43.022 71.7536C43.022 71.9687 42.6391 72.3751 42.29 72.7458C42.0508 72.9997 41.8275 73.2368 41.7538 73.3841C41.0292 74.1087 42.1161 75.1957 43.5654 75.1957C43.2031 74.8333 43.022 74.471 43.2031 74.1087C43.3843 74.1087 43.5654 74.1087 43.9278 73.9276C44.1416 73.8206 44.1661 73.4614 44.1875 73.1476C44.2024 72.9297 44.2158 72.7337 44.2901 72.6594C44.8335 72.116 46.2828 72.116 47.3698 72.116C47.7321 72.116 48.2756 71.9348 48.0944 71.3913C48.6379 71.3913 48.8191 71.9348 48.8191 72.2971C49.3625 71.9348 49.7248 70.6667 47.9133 70.3044C48.2756 69.9421 48.819 69.9421 49.1814 70.3044C49.5437 69.7609 48.6379 68.8551 47.1886 69.3986C47.1886 69.3986 46.464 68.4928 44.6524 70.6667C44.5618 70.5761 44.426 70.4856 44.2901 70.395C44.1543 70.3044 44.0183 70.2138 43.9278 70.1232L41.3915 67.587C41.3915 66.5 41.2104 64.5073 39.9422 63.4203C39.3988 62.8768 38.8553 62.6957 37.5872 62.3334C37.5872 62.3334 38.1306 61.4276 38.3118 61.0652C39.3988 62.1522 41.5727 62.5145 41.5727 60.7029C43.3843 62.5145 45.0147 61.4276 45.0147 60.3406C45.0147 60.8841 45.1959 61.4276 45.377 61.971C45.5582 62.5145 46.464 64.8696 48.4567 64.8696C48.4567 65.5942 48.4567 68.3116 50.993 68.8551C51.1741 68.8551 51.1741 68.8551 51.3553 69.0362C52.4422 70.3044 56.6089 71.5725 56.9712 71.2102C56.6089 71.029 56.0654 70.6667 56.0654 69.2174C56.0654 68.9786 56.0528 68.4501 56.0343 67.6719C55.9825 65.4981 55.8843 61.3758 55.8843 56.1739C55.8843 53.6377 55.7031 45.4855 47.5509 44.3986C46.2828 44.2174 45.1959 44.3986 44.1089 45.1232C42.6596 46.2102 41.935 48.0218 42.8408 50.0145V50.1957C43.2031 50.7392 43.0219 51.1015 42.6596 51.4638C41.935 52.1884 41.2104 52.5507 40.3046 52.7319C39.7611 52.7319 39.2176 52.5507 38.8553 52.1884C37.9495 51.2826 37.406 50.1957 37.0437 48.9276C36.7467 46.9968 37.0584 45.7967 37.1804 45.327C37.2071 45.224 37.2248 45.1558 37.2248 45.1232C37.9495 43.8551 39.2176 42.7681 40.848 42.7681C41.5727 41.3189 43.7466 41.8623 43.7466 41.8623C43.8318 41.8907 43.9082 41.9147 43.977 41.9363C44.3468 42.0524 44.4996 42.1004 44.6524 42.4058C44.6524 42.4058 45.5582 40.9565 44.6524 40.4131C43.7466 39.8696 41.7538 39.6884 41.7538 39.6884C41.7538 38.7826 40.3046 38.058 37.406 38.6015C34.1451 39.1449 33.4205 37.8768 33.4205 37.8768C33.2676 39.2525 34.1466 39.9834 34.6426 40.3958C34.7345 40.4722 34.8132 40.5376 34.8698 40.5942C33.6017 42.0435 31.7901 44.7609 31.4278 48.5652C31.0654 44.7609 29.2538 42.0435 27.9857 40.5942C28.348 40.4131 29.6162 39.5073 29.435 37.8768C29.435 37.8768 28.7104 39.1449 25.4495 38.6015C22.7321 38.058 21.1017 38.7826 21.1017 39.6884C21.1017 39.6884 19.1089 39.8696 18.2031 40.4131C17.2973 40.9565 18.2031 42.4058 18.2031 42.4058C18.3843 42.2247 18.5654 42.0435 19.1089 41.8623C19.1089 41.8623 21.2828 41.3189 22.0075 42.7681C23.6379 42.9493 24.906 43.8551 25.6306 45.1232C25.6306 45.1232 26.3553 46.3913 25.8118 48.9276C25.6307 50.1957 24.906 51.2826 24.0002 52.1884C23.6379 52.5507 23.0944 52.9131 22.5509 52.7319C21.6451 52.5507 20.9205 52.1884 20.1959 51.4638C19.8335 51.1015 19.6524 50.7392 20.0147 50.1957V50.0145C20.9205 48.0218 20.1959 46.2102 18.7466 45.1232C17.6596 44.3986 16.5727 44.2174 15.3046 44.3986C7.33355 45.4855 6.97123 53.6377 6.97123 56.1739C6.97123 61.3764 6.87301 65.4983 6.82121 67.6719C6.80267 68.4501 6.79007 68.9786 6.79007 69.2174C6.79007 70.6667 6.2466 71.029 5.88428 71.2102C6.42776 71.5725 10.5944 70.3044 11.5002 69.0362C11.5002 69.0362 11.6814 68.8551 11.8625 68.8551C14.3988 68.3116 14.3988 65.5942 14.3988 64.8696C16.3915 64.8696 17.2973 62.5144 17.4785 61.971C17.6596 61.4275 17.8408 60.8841 17.8408 60.3406C17.8408 61.4276 19.4712 62.3333 21.2828 60.7029C21.2828 62.5145 23.4567 62.1522 24.5437 61.0652C24.7248 61.4276 25.2683 62.3334 25.2683 62.3334C24.0002 62.5145 23.4567 62.8768 22.9133 63.4203C21.464 64.6884 21.464 66.6812 21.464 67.587L18.9277 70.1232C18.8372 70.2138 18.7013 70.3044 18.5654 70.3949C18.4296 70.4855 18.2937 70.5761 18.2031 70.6667C16.2104 68.4928 15.6669 69.3986 15.6669 69.3986C14.2176 68.8551 13.493 69.7609 13.6741 70.3044C14.0364 69.9421 14.5799 70.1232 14.9422 70.3044C12.9495 70.6667 13.493 72.116 14.0365 72.2971C14.0365 71.9348 14.2176 71.3913 14.7611 71.3913C14.7611 71.9348 15.1234 72.116 15.4858 72.116C16.3916 72.116 18.022 72.116 18.5654 72.6594C18.7793 72.7663 18.8038 73.1256 18.8252 73.4394C18.8401 73.6573 18.8535 73.8533 18.9277 73.9276C19.1089 74.1087 19.4712 74.1087 19.6524 74.1087C19.6524 74.471 19.6524 74.6522 19.2901 75.1957C20.7393 75.3768 21.6451 74.1087 21.1017 73.3841C20.7393 73.0218 19.8335 72.116 19.8335 71.7536C19.8335 71.3913 20.1959 70.8478 20.5582 70.4855L22.7321 68.8551C22.9133 68.6739 23.0944 68.4928 23.4567 68.4928C23.6379 68.3116 24.0002 68.3116 24.1814 68.4928C24.7249 68.6739 24.7249 68.6739 24.906 68.4928C24.9504 68.4632 24.9973 68.4311 25.0469 68.3972C25.6003 68.0187 26.5035 67.401 28.3041 67.2287C28.2235 67.2449 28.1849 67.3075 28.1342 67.3895C28.0977 67.4486 28.0549 67.5178 27.9857 67.587C27.8951 67.6776 27.8499 67.7681 27.8046 67.8587C27.7593 67.9493 27.714 68.0399 27.6234 68.1304C27.5217 68.2322 27.4771 68.391 27.4254 68.5749C27.3851 68.7185 27.3405 68.8774 27.2611 69.0362C26.627 70.5761 25.993 72.0707 25.3589 73.5652C24.7248 75.0598 24.0908 76.5544 23.4567 78.0942C23.0944 79.1812 23.4567 79.9058 24.3625 80.4493C25.0872 80.8116 25.993 80.6304 26.5364 79.9058C26.3553 80.4493 26.3553 80.8116 26.5364 81.1739C26.7176 81.5363 27.0799 81.8986 27.4422 82.0797C27.8046 82.2609 28.348 82.2609 28.7104 82.2609C29.2538 82.0797 29.435 81.8986 29.6162 81.3551C29.7973 82.2609 30.3408 82.9855 31.4278 82.9855Z" fill="#77787B"/>
<path fill-rule="evenodd" clip-rule="evenodd" d="M31.4275 29C14.3985 29 0.449219 42.7681 0.449219 59.9783C0.449219 77.0072 14.2173 90.9565 31.4275 90.9565C48.4565 90.9565 62.4057 77.1884 62.4057 59.9783C62.4057 42.7681 48.4565 29 31.4275 29ZM31.4275 88.4203C15.6666 88.4203 2.98544 75.7391 2.98544 59.9783C2.98544 44.2174 15.6666 31.5362 31.4275 31.5362C47.1884 31.5362 59.8695 44.2174 59.8695 59.9783C60.0507 75.558 47.1884 88.4203 31.4275 88.4203Z" fill="#77787B"/>
<path fill-rule="evenodd" clip-rule="evenodd" d="M83.6013 49.1087C85.2318 49.1087 88.8549 48.9276 90.8477 48.7464V50.9203C89.0361 50.7391 86.1376 50.558 85.2318 50.558C84.5071 50.558 82.1521 50.558 80.7028 50.7391V58.3479H82.3332C85.5941 58.3479 92.1158 58.8913 92.1158 64.5073C92.1158 69.0362 88.3115 71.029 83.4202 71.029H77.623C77.8042 67.587 77.8042 63.058 77.8042 59.2537C77.8042 55.8116 77.8042 50.558 77.623 48.9276C78.8662 48.9276 80.6028 48.9981 81.9093 49.0511C82.6972 49.0831 83.3287 49.1087 83.6013 49.1087ZM80.5216 69.2174H83.239C86.8622 69.2174 88.8549 67.587 88.8549 64.3261C88.8549 60.8841 86.3187 59.7971 80.5216 59.7971V69.2174Z" fill="#77787B"/>
<path fill-rule="evenodd" clip-rule="evenodd" d="M95.5582 57.2609C96.8263 55.8116 99.0002 55.087 100.812 55.087C104.073 55.087 106.247 56.7174 106.247 60.5218V68.1304C106.247 69.7609 106.609 70.1232 107.152 70.1232C107.334 70.1232 107.696 70.1232 107.877 69.942L108.058 70.6667C107.152 71.2102 106.247 71.2102 105.703 71.2102C104.616 71.2102 104.073 70.6667 103.891 69.942L103.71 69.2174C102.08 70.4855 100.268 71.2102 98.819 71.2102C96.1016 71.2102 94.29 69.7609 94.29 67.2247C94.29 64.5073 96.2828 63.2391 99.1813 62.6957L102.261 62.1522C103.348 61.971 103.891 61.6087 103.891 60.8841C103.891 57.6232 102.442 56.7174 100.087 56.7174C98.2755 56.7174 97.0074 57.2609 95.9205 59.2536H95.5582V57.2609ZM101.899 63.4203L103.71 63.0909V67.7681C102.442 69.2174 101.355 69.5797 100.087 69.5797C98.0944 69.5797 97.1886 68.6739 97.1886 66.8623C97.1886 64.5073 99.7248 63.7826 101.899 63.4203Z" fill="#77787B"/>
<path d="M113.855 55.6304C113.674 57.9855 113.493 61.7899 113.493 61.971C114.151 61.971 114.956 62.0199 115.73 62.0668C116.447 62.1103 117.137 62.1522 117.659 62.1522C118.746 62.1522 120.558 62.1522 121.464 61.971C121.464 61.7899 121.464 57.9855 121.283 55.6304H124.362C124.181 57.9855 124 61.7898 124 63.4203C124 64.6884 124 68.8551 124.362 71.2101H121.283C121.464 68.8551 121.464 64.6884 121.464 63.7826C120.196 63.6014 118.203 63.6014 117.659 63.6014C116.754 63.6014 114.761 63.6014 113.493 63.7826C113.493 64.8697 113.493 68.8551 113.855 71.2101H110.775C110.957 68.8551 111.138 64.6884 111.138 63.4203C111.138 61.7898 111.138 57.9855 110.775 55.6304H113.855Z" fill="#77787B"/>
<path d="M129.978 55.6305H131.427C131.246 57.9855 131.246 61.7899 131.246 62.3333H131.79C132.877 62.3333 137.949 56.5362 138.493 55.6305H141.391L134.145 62.1522C135.051 63.2391 139.942 68.6739 142.116 71.029H138.311C137.224 69.2174 133.782 65.2319 131.79 63.058H131.246C131.246 64.1449 131.246 68.6739 131.427 71.029H128.348C128.529 68.6739 128.71 64.5073 128.71 63.2391C128.71 61.6087 128.71 57.8044 128.348 55.4493C128.891 55.6304 129.435 55.6305 129.978 55.6305Z" fill="#77787B"/>
<path fill-rule="evenodd" clip-rule="evenodd" d="M155.34 48.9276C155.909 48.9276 156.526 48.878 157.116 48.8308C157.654 48.7877 158.169 48.7464 158.601 48.7464C164.217 48.7464 166.391 50.3768 166.391 54.3623C166.391 59.2536 162.225 60.8841 157.152 60.8841C156.79 60.8841 155.703 60.8841 155.159 60.7029V65.9565C155.159 67.4058 155.159 69.3986 155.34 70.8478H152.08C152.261 67.4058 152.261 62.8768 152.261 59.0725C152.261 55.6305 152.261 50.3768 152.08 48.7464C152.802 48.7464 153.524 48.8052 154.146 48.8557C154.616 48.894 155.029 48.9276 155.34 48.9276ZM156.609 59.2537C160.956 59.2537 163.311 57.6232 163.311 54.3623C163.311 51.2826 160.956 50.558 157.877 50.558H155.159V59.0725C155.703 59.2536 156.246 59.2537 156.609 59.2537Z" fill="#77787B"/>
<path fill-rule="evenodd" clip-rule="evenodd" d="M182.333 63.2391C182.333 67.9493 179.253 71.3913 174.543 71.3913C169.833 71.3913 166.935 67.9493 166.935 63.6015C166.935 58.529 170.195 55.2681 174.906 55.2681C179.435 55.2681 182.333 58.529 182.333 63.2391ZM169.833 63.4203C169.833 66.8623 171.282 70.1232 174.543 70.1232C177.623 70.1232 179.435 67.0435 179.435 63.058C179.435 59.7971 178.166 56.3551 174.724 56.3551C171.464 56.3551 169.833 59.7971 169.833 63.4203Z" fill="#77787B"/>
<path d="M197.188 58.8913H196.826C195.739 57.0797 194.29 56.5362 192.659 56.5362C189.036 56.5362 187.406 59.9783 187.406 63.4203C187.406 67.2246 189.58 70.3044 193.384 70.3044C194.652 70.3044 195.739 70.1232 197.551 68.1304L197.913 68.4928L197.551 69.942C196.102 70.8478 194.471 71.3913 192.478 71.3913C187.768 71.3913 184.688 68.1304 184.688 63.4203C184.688 58.529 188.131 55.4493 193.022 55.4493C194.652 55.4493 196.283 55.8116 198.275 56.7174L197.188 58.8913Z" fill="#77787B"/>
<path d="M212.768 58.8913H212.406C211.319 57.0797 209.87 56.5362 208.239 56.5362C204.616 56.5362 202.985 59.9783 202.985 63.4203C202.985 67.2246 205.159 70.3044 208.964 70.3044C210.232 70.3044 211.319 70.1232 213.13 68.1304L213.312 68.4928L212.949 69.942C211.5 70.8478 209.87 71.3913 207.877 71.3913C203.167 71.3913 200.087 68.1304 200.087 63.4203C200.087 58.529 203.529 55.4493 208.42 55.4493C210.051 55.4493 211.681 55.8116 213.674 56.7174L212.768 58.8913Z" fill="#77787B"/>
<path d="M217.297 70.8478H216.391C216.572 68.4928 216.753 64.3261 216.753 63.058C216.753 61.4276 216.753 57.6232 216.391 55.2681H219.471C219.29 57.6232 219.109 61.4276 219.109 63.058V67.0435C220.739 65.0507 226.717 57.442 228.166 55.4493H230.159C229.978 57.8044 229.797 61.6087 229.797 63.2391C229.797 64.5073 229.797 68.6739 230.159 71.029H227.08C227.261 68.6739 227.442 64.5073 227.442 63.2391V59.0725C225.449 61.2464 219.833 68.3116 218.203 71.029C217.84 70.8478 217.478 70.8478 217.297 70.8478Z" fill="#77787B"/>
<path d="M234.507 70.8478H233.602C233.783 68.4928 233.783 64.3261 233.783 63.058C233.783 61.4276 233.783 57.6232 233.602 55.2681H236.681C236.319 57.8044 236.319 61.6087 236.319 63.2391V67.2246C237.949 65.2319 243.928 57.6232 245.377 55.6305H247.37C247.189 57.8044 247.189 61.6087 247.189 63.2391C247.189 64.5073 247.189 68.6739 247.37 71.029H244.29C244.471 68.6739 244.471 64.5073 244.471 63.2391V59.0725C242.478 61.2464 236.862 68.3116 235.232 71.029C235.051 70.8478 234.87 70.8478 234.507 70.8478Z" fill="#77787B"/>
</svg>
