<svg width="230" height="120" viewBox="0 0 230 120" fill="none" xmlns="http://www.w3.org/2000/svg">
<g clip-path="url(#clip0_442_15239)">
<path fill-rule="evenodd" clip-rule="evenodd" d="M220.533 58.7911C220.538 59.8673 220.524 60.9449 220.539 62.0218C221.522 62.0472 222.506 62.0177 223.489 62.0311C223.941 62.0364 224.443 61.9876 224.783 61.6536C225.17 61.2949 225.264 60.7267 225.234 60.2227C225.208 59.7308 224.986 59.2134 224.535 58.9731C224.071 58.7208 223.528 58.7919 223.023 58.7817C222.193 58.7878 221.362 58.7691 220.533 58.7911V58.7911ZM216.498 52.6599C216.462 52.2367 216.849 51.866 217.268 51.9021C218.113 51.9021 218.957 51.9009 219.801 51.9031C220.051 51.8948 220.299 52.0227 220.429 52.2382C220.573 52.4609 220.523 52.739 220.533 52.9905C220.54 54.0359 220.519 55.082 220.544 56.1265C221.347 56.1228 222.15 56.1259 222.955 56.1246C223.826 56.128 224.703 56.0992 225.568 56.2264C226.496 56.3595 227.444 56.6573 228.142 57.3093C228.817 57.9196 229.143 58.8206 229.244 59.7073V61.137C229.127 62.001 228.816 62.8805 228.157 63.4814C227.276 64.3093 226.03 64.5704 224.861 64.6534C223.893 64.6995 222.923 64.668 221.955 64.6774C220.37 64.6754 218.784 64.6808 217.199 64.6747C216.822 64.6788 216.488 64.3448 216.501 63.9666C216.495 60.1978 216.5 56.4285 216.498 52.6599V52.6599ZM201.912 52.5977C201.906 52.222 202.239 51.8975 202.613 51.9043C206.447 51.8994 210.282 51.9021 214.116 51.9031C214.486 51.8914 214.825 52.2134 214.825 52.5848C214.83 53.0104 214.823 53.437 214.828 53.8633C214.84 54.092 214.798 54.3386 214.627 54.5051C214.467 54.6818 214.217 54.7259 213.99 54.7158C212.938 54.7137 211.886 54.7158 210.835 54.7146C210.684 54.718 210.531 54.6971 210.386 54.7385C210.392 57.814 210.39 60.8893 210.387 63.964C210.397 64.3334 210.081 64.6693 209.711 64.6741C208.859 64.6814 208.006 64.6747 207.154 64.6782C206.913 64.6915 206.656 64.6118 206.509 64.4124C206.312 64.1768 206.353 63.8529 206.349 63.5692C206.347 60.6189 206.353 57.6687 206.347 54.7192C205.101 54.7078 203.856 54.7213 202.611 54.7124C202.253 54.7232 201.928 54.4208 201.915 54.0648C201.903 53.5753 201.91 53.0862 201.912 52.5977V52.5977ZM153.36 52.5882C153.356 52.2088 153.708 51.8896 154.082 51.9021C154.952 51.8982 155.821 51.8994 156.691 51.9021C157.061 51.8942 157.394 52.2214 157.391 52.5928C157.395 53.9918 157.397 55.3905 157.39 56.7901C159.095 56.7987 160.799 56.7913 162.504 56.7935C162.505 55.3938 162.5 53.9942 162.507 52.5949C162.504 52.2281 162.827 51.9043 163.193 51.9037C164.082 51.8982 164.97 51.8975 165.857 51.9037C166.252 51.9009 166.571 52.2763 166.542 52.6639C166.54 56.4313 166.545 60.1993 166.539 63.9673C166.548 64.3328 166.238 64.6693 165.87 64.6741C164.974 64.6795 164.077 64.6788 163.181 64.6747C162.81 64.668 162.495 64.3315 162.506 63.9613C162.503 62.517 162.5 61.0721 162.507 59.6277C161.441 59.5949 160.373 59.6224 159.306 59.6137C158.666 59.6277 158.023 59.5828 157.386 59.6377C157.403 61.08 157.391 62.5237 157.392 63.9666C157.403 64.3448 157.073 64.6782 156.697 64.6754C155.824 64.6774 154.951 64.6795 154.078 64.6741C153.773 64.6855 153.479 64.4733 153.39 64.1822C153.352 64.0496 153.358 63.9104 153.356 63.7753C153.359 60.0461 153.353 56.3166 153.36 52.5882V52.5882ZM122.482 52.659C122.452 52.2729 122.775 51.907 123.165 51.9049C124.035 51.8948 124.905 51.9031 125.775 51.9009C126.156 51.8794 126.517 52.2002 126.517 52.5863C126.525 53.989 126.517 55.3917 126.522 56.7947C128.22 56.7947 129.918 56.7892 131.616 56.7975C131.648 55.3972 131.617 53.9936 131.631 52.5921C131.628 52.2195 131.964 51.8942 132.336 51.9037C133.204 51.8975 134.073 51.9003 134.942 51.9021C135.344 51.8834 135.701 52.2563 135.663 52.6584C135.663 56.4313 135.667 60.2047 135.661 63.9774C135.675 64.3581 135.325 64.6935 134.946 64.6747C134.072 64.6782 133.196 64.6795 132.321 64.6741C131.95 64.6795 131.622 64.3435 131.631 63.9734C131.621 62.5224 131.64 61.0706 131.622 59.6203C129.922 59.607 128.222 59.6137 126.523 59.617C126.516 61.0661 126.525 62.5157 126.518 63.9647C126.518 64.2404 126.352 64.5142 126.092 64.6172C125.928 64.6929 125.742 64.6728 125.568 64.6774C124.764 64.6734 123.961 64.6828 123.158 64.6734C122.79 64.67 122.476 64.334 122.484 63.9673C122.479 60.1978 122.483 56.4285 122.482 52.659V52.659ZM175.205 54.3211C174.539 54.3638 173.85 54.6094 173.417 55.139C172.976 55.6662 172.821 56.3635 172.769 57.0336C172.799 57.0394 172.858 57.0508 172.887 57.0569C174.652 57.0575 176.415 57.0544 178.179 57.059C178.182 56.2458 177.941 55.3531 177.278 54.829C176.697 54.3751 175.92 54.2794 175.205 54.3211V54.3211ZM172.472 52.1671C173.901 51.6338 175.468 51.5783 176.97 51.7629C178.384 51.965 179.8 52.5326 180.776 53.6069C181.615 54.5171 182.077 55.7204 182.223 56.9379C182.313 57.561 182.306 58.1921 182.301 58.8199C182.313 59.1968 181.971 59.5274 181.597 59.5166C178.667 59.5246 175.736 59.5099 172.805 59.524C172.857 60.22 173.025 60.9542 173.504 61.4863C173.864 61.8931 174.39 62.1114 174.917 62.1978C175.599 62.3062 176.307 62.292 176.977 62.114C177.392 61.9942 177.806 61.8041 178.087 61.4656C178.386 61.1029 178.838 60.8732 179.31 60.8613C179.915 60.8545 180.52 60.8585 181.126 60.8579C181.462 60.8363 181.792 61.082 181.856 61.4154C181.897 61.7085 181.846 62.009 181.788 62.2981C181.625 63.041 181.083 63.6507 180.428 64.0129C179.437 64.569 178.289 64.7497 177.172 64.8515C175.572 64.9706 173.907 64.9806 172.389 64.3929C171.221 63.9686 170.195 63.1401 169.578 62.0559C168.898 60.8793 168.679 59.4925 168.699 58.1493C168.717 56.8011 168.999 55.4153 169.755 54.2782C170.393 53.2969 171.374 52.5609 172.472 52.1671ZM143.808 51.7C145.252 51.6163 146.722 51.682 148.122 52.0668C148.96 52.3085 149.791 52.6848 150.403 53.3232C151.05 53.9721 151.364 54.9066 151.322 55.8143C151.292 56.1688 150.957 56.4512 150.604 56.4353C150.025 56.4365 149.445 56.438 148.866 56.4347C148.539 56.4353 148.213 56.3175 147.97 56.0973C147.645 55.8336 147.491 55.4218 147.167 55.1583C146.638 54.7112 145.938 54.5143 145.256 54.4883C144.62 54.4628 143.958 54.5143 143.379 54.7995C142.881 55.0424 142.507 55.4957 142.31 56.0081C141.993 56.8156 141.966 57.6974 141.977 58.5542C141.993 59.3111 142.066 60.0948 142.408 60.7836C142.65 61.2774 143.085 61.667 143.601 61.8584C144.241 62.096 144.941 62.1295 145.615 62.0732C146.344 62.0002 147.101 61.7219 147.561 61.1262C147.779 60.8178 147.998 60.4857 148.343 60.3064C148.58 60.1672 148.861 60.1383 149.131 60.1418C149.666 60.145 150.201 60.1383 150.735 60.145C150.996 60.1431 151.257 60.289 151.372 60.5286C151.476 60.7219 151.442 60.9469 151.435 61.1577C151.389 61.9769 151.034 62.776 150.439 63.3436C149.507 64.2244 148.224 64.5871 146.986 64.7758C145.456 64.9726 143.881 64.9954 142.371 64.6427C141.198 64.3608 140.059 63.7926 139.267 62.8644C138.321 61.7942 137.92 60.3525 137.842 58.9518C137.762 57.478 137.922 55.9345 138.641 54.6214C139.231 53.5198 140.246 52.6679 141.412 52.2315C142.175 51.9224 142.992 51.773 143.808 51.7V51.7ZM110.635 59.872C110.064 60.39 110.119 61.4261 110.748 61.8759C111.193 62.2151 111.779 62.2814 112.323 62.2599C113.479 62.2226 114.607 61.8323 115.58 61.2152C115.571 60.6089 115.61 59.9965 115.561 59.3935C114.39 59.4108 113.219 59.3955 112.049 59.4016C111.547 59.4062 111.009 59.5112 110.635 59.872V59.872ZM110.575 51.8847C111.592 51.7022 112.627 51.658 113.658 51.6678C114.913 51.6835 116.198 51.8948 117.312 52.502C118.023 52.896 118.642 53.4763 119.026 54.1985C119.489 55.0078 119.61 55.9593 119.621 56.8775C119.62 59.2201 119.623 61.5619 119.62 63.9043C119.652 64.2872 119.345 64.6614 118.956 64.6734C118.193 64.6821 117.429 64.6769 116.667 64.676C116.334 64.6921 116.013 64.4399 115.957 64.1112C115.935 63.95 115.945 63.7873 115.935 63.626C115.323 64.0089 114.69 64.3775 113.992 64.5825C112.873 64.9351 111.678 64.9806 110.52 64.8428C109.511 64.7102 108.498 64.4077 107.673 63.794C107.015 63.3134 106.518 62.6094 106.319 61.8155C106.055 60.7473 106.202 59.5414 106.867 58.6439C107.456 57.8435 108.366 57.3372 109.308 57.0698C110.305 56.7653 111.358 56.7377 112.392 56.7518C113.452 56.7518 114.51 56.7512 115.57 56.7524C115.595 56.047 115.475 55.2365 114.899 54.7587C114.364 54.3371 113.644 54.3128 112.992 54.3168C112.23 54.3644 111.382 54.5379 110.874 55.1602C110.571 55.519 110.107 55.7198 109.641 55.7192C109.036 55.7226 108.431 55.7232 107.828 55.7186C107.493 55.729 107.187 55.4533 107.138 55.1277C107.09 54.3585 107.356 53.5526 107.933 53.0255C108.649 52.3499 109.63 52.0616 110.575 51.8847V51.8847ZM95.1503 55.5171C95.127 57.5489 95.1497 59.5822 95.139 61.6147C96.0222 61.8866 96.9373 62.114 97.8674 62.0946C98.5506 62.0753 99.2796 61.902 99.7656 61.3899C100.322 60.813 100.492 59.9858 100.569 59.2156C100.625 58.3881 100.63 57.5509 100.486 56.7324C100.365 56.0884 100.126 55.4193 99.6031 54.9915C99.0514 54.5358 98.2918 54.4349 97.5997 54.5011C96.7109 54.625 95.9158 55.0752 95.1503 55.5171ZM95.1353 52.7409C96.1663 52.0815 97.377 51.7 98.6019 51.6734C99.6332 51.6323 100.685 51.8058 101.617 52.2616C102.451 52.6657 103.168 53.3051 103.67 54.0841C104.297 55.0338 104.601 56.1608 104.714 57.2832C104.803 58.3306 104.764 59.3949 104.527 60.4215C104.257 61.5425 103.726 62.6355 102.852 63.4085C102.103 64.1086 101.138 64.5489 100.138 64.7517C98.4767 65.1012 96.7438 64.8715 95.1503 64.3241C95.127 65.5201 95.1503 66.7181 95.139 67.9147C95.1436 68.2567 94.8624 68.5955 94.5103 68.6008C93.621 68.5799 92.7307 68.5948 91.8414 68.5935C91.4249 68.669 91.0677 68.2507 91.1103 67.8525C91.1045 62.7881 91.1103 57.7237 91.1103 52.659C91.0756 52.2784 91.3866 51.9135 91.7718 51.9055C92.5308 51.8942 93.2898 51.9021 94.0485 51.9015C94.3097 51.8963 94.5775 52.038 94.6958 52.2757C94.8096 52.479 94.7682 52.7216 94.786 52.9442C94.912 52.8933 95.0246 52.8172 95.1353 52.7409V52.7409ZM194.529 54.4754C194.539 57.0268 194.527 59.5783 194.535 62.1289C195.374 62.1202 196.284 61.8912 196.84 61.2186C197.37 60.5868 197.547 59.7462 197.612 58.9443C197.658 58.1172 197.644 57.2713 197.416 56.4687C197.251 55.8943 196.943 55.3377 196.447 54.9875C195.895 54.598 195.196 54.442 194.528 54.4754H194.529ZM189.03 54.8014C188.567 55.0317 188.196 55.43 187.975 55.8943C187.651 56.5509 187.562 57.2924 187.537 58.0155C187.522 58.6639 187.56 59.3184 187.715 59.9496C187.862 60.5346 188.141 61.1083 188.615 61.4983C189.174 61.9634 189.924 62.1229 190.636 62.1221C190.64 59.5722 190.637 57.0229 190.638 54.4729C190.086 54.4521 189.524 54.5511 189.03 54.8014V54.8014ZM190.574 48.6328C190.574 48.2568 190.922 47.944 191.294 47.9593C192.164 47.9575 193.035 47.9532 193.905 47.9615C194.27 47.9556 194.599 48.2712 194.601 48.6374C194.612 49.7236 194.6 50.8098 194.607 51.8963C195.476 51.9411 196.35 52.0162 197.194 52.2444C198.346 52.5394 199.465 53.0948 200.262 53.9979C201.085 54.9099 201.498 56.1213 201.618 57.3286C201.731 58.5843 201.648 59.886 201.181 61.068C200.721 62.2433 199.804 63.2251 198.671 63.7773C197.419 64.4178 195.999 64.6279 194.608 64.6788C194.595 65.7791 194.619 66.8808 194.597 67.9809C194.584 68.3365 194.266 68.5593 193.956 68.6543H191.206C191.038 68.5694 190.841 68.5158 190.726 68.3591C190.604 68.218 190.566 68.0291 190.57 67.8492C190.566 66.7918 190.572 65.735 190.566 64.6774C189.751 64.6481 188.935 64.5657 188.141 64.3749C186.936 64.0804 185.752 63.5257 184.92 62.5827C184.12 61.6992 183.695 60.5318 183.566 59.3593C183.422 58.0877 183.503 56.7659 183.958 55.5619C184.409 54.365 185.331 53.3619 186.48 52.8031C187.736 52.1619 189.16 51.9509 190.556 51.9021C190.59 50.8132 190.553 49.7224 190.574 48.6328V48.6328ZM74.3482 48.983C74.3543 48.4166 74.8803 47.9449 75.4405 47.9593C80.3512 47.956 85.2622 47.9575 90.1728 47.9581C90.5414 47.9422 90.9238 48.1013 91.1373 48.4092C91.3964 48.7438 91.3412 49.1863 91.344 49.5813C91.3326 49.9205 91.3921 50.2786 91.2523 50.6003C91.0882 50.9999 90.6638 51.263 90.2344 51.2545C88.5002 51.2676 86.7667 51.2489 85.0334 51.263C85.0466 55.2739 85.0346 59.285 85.0395 63.296C85.0401 63.5423 85.0509 63.8014 84.9429 64.0302C84.7681 64.4399 84.3198 64.6988 83.8788 64.6769C83.1498 64.6754 82.4206 64.6821 81.691 64.6741C81.1166 64.6601 80.6189 64.1386 80.6444 63.5617C80.6456 59.463 80.6404 55.3644 80.6468 51.2658C78.8899 51.2428 77.1312 51.2744 75.3743 51.2496C74.8361 51.2394 74.3743 50.773 74.3384 50.2452C74.3602 49.8248 74.3776 49.4031 74.3482 48.983" fill="#004A83"/>
<path fill-rule="evenodd" clip-rule="evenodd" d="M55.3258 50.6336C57.9411 50.3843 60.5747 50.6493 63.1569 51.082C63.1431 51.1234 63.1145 51.2046 63.1011 51.2448C60.9065 54.2428 58.6986 57.2322 56.42 60.1673C56.048 60.6598 55.6555 61.1367 55.2982 61.6392C54.105 61.8049 52.8823 62.074 51.8715 62.7609C51.5121 63.0121 51.0776 63.1368 50.7467 63.4292C50.6574 63.5116 50.5339 63.5351 50.4268 63.5754C49.7194 64.1151 48.9275 64.537 48.2357 65.0984C47.5123 65.5096 46.94 66.122 46.2709 66.6068C45.74 67.0886 45.2298 67.594 44.7115 68.0886C44.2935 68.5281 43.7694 68.8471 43.3456 69.2799C42.6979 69.9148 41.9472 70.4261 41.2777 71.0384C40.8659 71.3741 40.4829 71.746 40.0275 72.0247C39.4997 72.532 38.8256 72.8421 38.2522 73.2926C36.4643 74.3819 34.5332 75.3034 32.4623 75.6891C32.0192 75.851 31.542 75.7509 31.0866 75.8323C30.4076 75.9834 29.7059 75.8588 29.021 75.9128C28.9719 75.9382 28.8748 75.9893 28.8267 76.0139C27.333 75.4456 25.9482 74.5625 24.5686 73.7441C23.9592 73.3563 23.3537 72.9619 22.757 72.5557C25.4303 73.1354 28.2546 73.1278 30.8845 72.3377C32.5871 71.8119 34.0159 70.6686 35.2278 69.3947C36.5253 68.0386 37.7167 66.587 38.9483 65.172C40.2504 63.6538 41.5743 62.1544 42.8335 60.6001C45.219 57.7452 47.4457 54.6884 50.4005 52.3804C51.7703 51.227 53.5849 50.8112 55.3258 50.6336V50.6336ZM2.5552 48.3036C3.5013 47.1576 4.88191 46.401 6.34818 46.1762C8.37062 45.8524 10.4441 46.2793 12.3215 47.0438L12.3283 47.1094C11.4864 47.3636 10.7563 47.9221 10.2567 48.6434C8.8554 50.6158 8.05171 53.021 8.09103 55.448C8.09486 57.13 8.52766 58.7707 9.08696 60.3447C10.6827 64.8865 13.6335 68.8825 17.2743 72.0011C20.4068 74.6861 24.0593 76.7479 27.9473 78.1178C32.2967 79.6468 36.9856 80.2767 41.577 79.7655C43.9647 79.5006 46.3199 78.9147 48.5387 77.9883C48.8383 77.8579 49.1296 77.7028 49.4467 77.6124C48.4485 78.9274 47.2482 80.0855 46.017 81.1826C44.5575 82.4495 42.9285 83.5035 41.2455 84.4465C39.2703 85.5211 37.1865 86.4121 35.0159 87.0068C30.4018 88.3061 25.4527 88.2768 20.8178 87.0932C17.5128 86.2954 14.3871 84.8145 11.6089 82.8636C10.9153 82.3945 10.294 81.8293 9.66018 81.2837C7.48929 79.3465 5.56198 77.1257 4.0272 74.6499C0.192189 68.5056 -1.16313 60.8307 0.495382 53.765C0.835951 52.2427 1.31871 50.7554 1.90749 49.3116C2.03519 48.9258 2.30987 48.6188 2.5552 48.3036ZM56.8175 32.1892H59.7173C60.7811 32.2833 61.8437 32.4198 62.8812 32.6798C63.1333 32.7516 63.4178 32.7605 63.635 32.9242C63.3896 33.2462 63.1832 33.5955 62.9624 33.935C60.8517 37.2136 58.7396 40.4925 56.6292 43.771C56.689 43.5079 56.8674 43.296 56.991 43.0614C58.4541 40.46 59.9547 37.88 61.4061 35.2724C59.2502 35.0234 57.0508 35.1549 54.9333 35.6247C53.0853 36.0525 51.2944 36.7888 49.7519 37.9017C48.4102 38.8545 47.4709 40.2373 46.5337 41.563C45.4604 43.1537 44.4573 44.7895 43.4722 46.4363C41.3615 49.9553 39.3141 53.5138 37.1466 56.9976C35.172 60.1318 33.1357 63.2486 30.6824 66.0345C29.4214 67.4292 28.0533 68.7844 26.3752 69.6675C25.4097 70.1886 24.3057 70.3191 23.2348 70.4486C23.2369 70.2878 23.4066 70.3251 23.5137 70.2947C24.7727 70.1454 25.8913 69.4663 26.853 68.6755C28.2161 67.5547 29.3594 66.1955 30.43 64.8001C31.7459 63.0395 32.9533 61.1987 34.0769 59.3094C36.0856 55.9721 37.9256 52.5374 39.745 49.0948C41.5743 45.6767 43.3309 42.2135 45.3711 38.9144C45.4318 38.8144 45.4073 38.7377 45.2975 38.6837C42.0512 36.4678 38.3034 34.9869 34.4133 34.411C28.4576 33.4974 22.1926 34.729 17.0546 37.8818C14.3068 39.5326 11.8848 41.7081 9.88969 44.2136C8.03399 43.9182 6.1038 44.1734 4.38251 44.922C7.77789 39.7062 12.9829 35.6965 18.8876 33.7311C24.2212 31.9349 30.0984 31.83 35.5038 33.3827C39.1532 34.4355 42.5909 36.2353 45.5143 38.6641C46.1964 37.6954 46.8302 36.6702 47.7202 35.8722C50.2211 33.6523 53.5042 32.4363 56.8172 32.1892" fill="#004A83"/>
<path fill-rule="evenodd" clip-rule="evenodd" d="M55.2983 61.6393C58.3653 61.3263 61.4374 62.2242 64.1499 63.6089C62.895 65.0151 61.5132 66.3154 60.201 67.6726C57.6722 70.2182 55.1216 72.749 52.4092 75.1004C50.793 76.5389 48.7666 77.4379 46.6929 77.9933C42.2809 79.1268 37.5999 78.7804 33.2348 77.6008C32.0395 77.2769 30.864 76.8844 29.7119 76.4301C29.4175 76.2898 29.0858 76.2161 28.8267 76.014C28.8748 75.9895 28.972 75.9383 29.021 75.9129C29.7059 75.8589 30.4077 75.9836 31.0866 75.8324C31.542 75.751 32.0189 75.851 32.4627 75.6892C34.5333 75.3034 36.4643 74.382 38.2525 73.2927C38.8257 72.8422 39.4997 72.5322 40.0275 72.0248C40.4829 71.7461 40.8656 71.3741 41.2778 71.0386C41.9472 70.4262 42.698 69.9149 43.3456 69.2801C43.7695 68.8473 44.2935 68.5284 44.7115 68.0887C45.2298 67.5941 45.7401 67.0887 46.2709 66.6069C46.9401 66.122 47.5123 65.5097 48.2357 65.0986C48.9276 64.5372 49.7194 64.1152 50.4269 63.5755C50.5339 63.5352 50.6575 63.5118 50.7467 63.4293C51.0776 63.1368 51.5122 63.0122 51.8716 62.761C52.8824 62.0741 54.105 61.8052 55.2983 61.6393" fill="#DA251C"/>
</g>
<defs>
<clipPath id="clip0_442_15239">
<rect width="230" height="120" fill="white"/>
</clipPath>
</defs>
</svg>
