<?xml version="1.0" standalone="no"?>
<!DOCTYPE svg PUBLIC "-//W3C//DTD SVG 20010904//EN"
 "http://www.w3.org/TR/2001/REC-SVG-20010904/DTD/svg10.dtd">
<svg version="1.0" xmlns="http://www.w3.org/2000/svg"
 width="480.000000pt" height="480.000000pt" viewBox="0 0 480.000000 480.000000"
 preserveAspectRatio="xMidYMid meet">
<metadata>
Created by potrace 1.14, written by Peter Selinger 2001-2017
</metadata>
<g transform="translate(0.000000,480.000000) scale(0.100000,-0.100000)"
fill="#000000" stroke="none">
<path d="M2160 4789 c-790 -87 -1470 -535 -1859 -1226 -348 -619 -396 -1392
-127 -2061 176 -437 491 -826 886 -1092 529 -357 1172 -487 1800 -364 844 164
1543 777 1815 1591 181 539 163 1133 -49 1661 -63 157 -125 272 -226 426 -380
571 -966 945 -1650 1051 -125 19 -468 28 -590 14z m452 -1176 l88 -88 0 -125
0 -125 -88 -88 -87 -87 -125 0 -125 0 -87 87 -88 88 0 125 0 125 87 87 88 88
125 0 125 0 87 -87z m-600 -600 l88 -88 0 -125 0 -125 87 -87 88 -88 125 0
125 0 88 88 87 87 0 125 0 125 87 87 88 88 125 0 125 0 87 -87 88 -88 0 -125
0 -125 -88 -88 -87 -87 -125 0 -125 0 -88 -88 -87 -87 0 -125 0 -125 87 -87
88 -88 125 0 125 0 87 87 88 88 0 125 0 125 88 88 87 87 125 0 125 0 88 -88
87 -87 0 -125 0 -125 -87 -87 -88 -88 -125 0 -125 0 -87 -87 -88 -88 0 -125 0
-125 -87 -87 -88 -88 -125 0 -125 0 -88 88 -87 87 0 125 0 125 -87 87 -88 88
-125 0 -125 0 -88 -88 -87 -87 0 -125 0 -125 -87 -87 -88 -88 -125 0 -125 0
-88 88 -87 87 0 125 0 125 -87 87 -88 88 -125 0 -125 0 -87 87 -88 88 0 125 0
125 87 87 88 88 125 0 125 0 88 -88 87 -87 0 -125 0 -125 88 -88 87 -87 125 0
125 0 87 87 88 88 0 125 0 125 -87 87 -88 88 -125 0 -125 0 -87 87 -88 88 0
125 0 125 87 87 88 88 125 0 125 0 87 -87z"/>
</g>
</svg>
