<svg width="600" height="600" viewBox="0 0 600 600" fill="none" xmlns="http://www.w3.org/2000/svg">
<g opacity="0.15" clip-path="url(#clip0_442_11642)">
<path d="M300 600C465.685 600 600 465.685 600 300C600 134.315 465.685 0 300 0C134.315 0 0 134.315 0 300C0 465.685 134.315 600 300 600Z" stroke="#406666" stroke-width="2" stroke-linecap="round" stroke-linejoin="round"/>
<path d="M300 576.125C452.499 576.125 576.125 452.5 576.125 300C576.125 147.501 452.499 23.8752 300 23.8752C147.5 23.8752 23.875 147.501 23.875 300C23.875 452.5 147.5 576.125 300 576.125Z" stroke="#406666" stroke-width="2" stroke-linecap="round" stroke-linejoin="round"/>
<path d="M300 552.241C439.309 552.241 552.241 439.309 552.241 300C552.241 160.691 439.309 47.7593 300 47.7593C160.691 47.7593 47.7593 160.691 47.7593 300C47.7593 439.309 160.691 552.241 300 552.241Z" stroke="#406666" stroke-width="2" stroke-linecap="round" stroke-linejoin="round"/>
<path d="M300 528.366C426.123 528.366 528.366 426.123 528.366 300C528.366 173.877 426.123 71.6345 300 71.6345C173.877 71.6345 71.6348 173.877 71.6348 300C71.6348 426.123 173.877 528.366 300 528.366Z" stroke="#406666" stroke-width="2" stroke-linecap="round" stroke-linejoin="round"/>
<path d="M300 504.481C412.932 504.481 504.481 412.932 504.481 300C504.481 187.068 412.932 95.5186 300 95.5186C187.068 95.5186 95.5186 187.068 95.5186 300C95.5186 412.932 187.068 504.481 300 504.481Z" stroke="#406666" stroke-width="2" stroke-linecap="round" stroke-linejoin="round"/>
<path d="M300 480.606C399.746 480.606 480.606 399.746 480.606 300C480.606 200.254 399.746 119.394 300 119.394C200.254 119.394 119.394 200.254 119.394 300C119.394 399.746 200.254 480.606 300 480.606Z" stroke="#406666" stroke-width="2" stroke-linecap="round" stroke-linejoin="round"/>
<path d="M300 456.722C386.555 456.722 456.722 386.555 456.722 300C456.722 213.445 386.555 143.278 300 143.278C213.445 143.278 143.278 213.445 143.278 300C143.278 386.555 213.445 456.722 300 456.722Z" stroke="#406666" stroke-width="2" stroke-linecap="round" stroke-linejoin="round"/>
<path d="M300 432.847C373.369 432.847 432.847 373.369 432.847 300C432.847 226.631 373.369 167.153 300 167.153C226.63 167.153 167.153 226.631 167.153 300C167.153 373.369 226.63 432.847 300 432.847Z" stroke="#406666" stroke-width="2" stroke-linecap="round" stroke-linejoin="round"/>
<path d="M300 408.963C360.178 408.963 408.963 360.179 408.963 300C408.963 239.821 360.178 191.037 300 191.037C239.821 191.037 191.037 239.821 191.037 300C191.037 360.179 239.821 408.963 300 408.963Z" stroke="#406666" stroke-width="2" stroke-linecap="round" stroke-linejoin="round"/>
<path d="M300 385.088C346.993 385.088 385.088 346.993 385.088 300C385.088 253.007 346.993 214.912 300 214.912C253.008 214.912 214.913 253.007 214.913 300C214.913 346.993 253.008 385.088 300 385.088Z" stroke="#406666" stroke-width="2" stroke-linecap="round" stroke-linejoin="round"/>
<path d="M300 361.203C333.802 361.203 361.204 333.802 361.204 300C361.204 266.198 333.802 238.796 300 238.796C266.198 238.796 238.796 266.198 238.796 300C238.796 333.802 266.198 361.203 300 361.203Z" stroke="#406666" stroke-width="2" stroke-linecap="round" stroke-linejoin="round"/>
<path d="M300 337.328C320.616 337.328 337.329 320.616 337.329 300C337.329 279.384 320.616 262.672 300 262.672C279.384 262.672 262.672 279.384 262.672 300C262.672 320.616 279.384 337.328 300 337.328Z" stroke="#406666" stroke-width="2" stroke-linecap="round" stroke-linejoin="round"/>
</g>
<defs>
<clipPath id="clip0_442_11642">
<rect width="600" height="600" fill="white"/>
</clipPath>
</defs>
</svg>
