<svg width="600" height="601" viewBox="0 0 600 601" fill="none" xmlns="http://www.w3.org/2000/svg">
<g opacity="0.15" clip-path="url(#clip0_442_11728)">
<path d="M0.976562 275.686L6.84402 275.142C82.3212 268.21 158.429 275.422 231.263 296.409V296.409" stroke="#406666" stroke-width="2" stroke-miterlimit="10"/>
<path d="M4.38867 248.962H10.2561C86.0673 248.821 161.24 262.832 231.916 290.277V290.277" stroke="#406666" stroke-width="2" stroke-miterlimit="10"/>
<path d="M10.1479 222.651L16.0154 223.173C91.5207 229.834 165.122 250.526 233.046 284.188V284.188" stroke="#406666" stroke-width="2" stroke-miterlimit="10"/>
<path d="M18.2764 196.97L24.0569 198.014C98.6964 211.412 170.184 238.623 234.851 278.252V278.252" stroke="#406666" stroke-width="2" stroke-miterlimit="10"/>
<path d="M28.6406 172.116L34.3125 173.66C107.412 193.715 176.134 227.231 236.957 272.489V272.489" stroke="#406666" stroke-width="2" stroke-miterlimit="10"/>
<path d="M41.2046 148.284L46.7243 150.459C117.732 176.986 183.174 216.526 239.698 267.054V267.054" stroke="#406666" stroke-width="2" stroke-miterlimit="10"/>
<path d="M55.8481 125.691L61.1506 128.301C129.502 161.089 191.142 206.345 242.911 261.748V261.748" stroke="#406666" stroke-width="2" stroke-miterlimit="10"/>
<path d="M72.4731 104.49L77.5148 107.491C142.649 146.282 199.986 196.884 246.584 256.703V256.703" stroke="#406666" stroke-width="2" stroke-miterlimit="10"/>
<path d="M90.9023 84.8113L95.6615 88.2469C157.063 132.724 209.638 188.267 250.693 252.028V252.028" stroke="#406666" stroke-width="2" stroke-miterlimit="10"/>
<path d="M111.025 66.9807L115.372 70.8513C172.544 120.643 219.932 180.671 255.104 247.853V247.853" stroke="#406666" stroke-width="2" stroke-miterlimit="10"/>
<path d="M132.692 50.9771L136.713 55.2173C189.188 109.944 231.004 173.982 260.016 244.048V244.048" stroke="#406666" stroke-width="2" stroke-miterlimit="10"/>
<path d="M155.684 36.9724L159.357 41.5605C206.716 100.778 242.629 168.311 265.253 240.698V240.698" stroke="#406666" stroke-width="2" stroke-miterlimit="10"/>
<path d="M179.848 25.0789L183.086 29.9931C224.95 93.2192 254.665 163.702 270.706 237.828V237.828" stroke="#406666" stroke-width="2" stroke-miterlimit="10"/>
<path d="M204.97 15.4026L207.752 20.5778C243.787 87.3035 267.068 160.169 276.401 235.437" stroke="#406666" stroke-width="2" stroke-miterlimit="10"/>
<path d="M230.853 8.03101L233.178 13.4454C263.083 83.1345 279.746 157.79 282.313 233.588V233.588" stroke="#406666" stroke-width="2" stroke-miterlimit="10"/>
<path d="M257.3 3.00806L259.125 8.70515C282.673 80.795 292.578 156.647 288.332 232.371V232.371" stroke="#406666" stroke-width="2" stroke-miterlimit="10"/>
<path d="M284.095 0.376953L285.399 6.09579C302.398 80.0136 305.471 156.455 294.461 231.501V231.501" stroke="#406666" stroke-width="2" stroke-miterlimit="10"/>
<path d="M311.017 0.159424L311.8 5.98699C322.103 81.1277 318.315 157.532 300.63 231.283V231.283" stroke="#406666" stroke-width="2" stroke-miterlimit="10"/>
<path d="M337.835 2.35596L338.117 8.22701C341.645 83.9882 331.025 159.744 306.802 231.61V231.61" stroke="#406666" stroke-width="2" stroke-miterlimit="10"/>
<path d="M364.369 6.94385L364.109 12.8149C360.841 88.5708 343.477 163.052 312.91 232.436V232.436" stroke="#406666" stroke-width="2" stroke-miterlimit="10"/>
<path d="M390.381 13.9021L389.598 19.7297C379.545 94.9048 355.58 167.547 318.928 233.936V233.936" stroke="#406666" stroke-width="2" stroke-miterlimit="10"/>
<path d="M415.653 23.1655L414.349 28.8844C397.612 102.86 367.234 173.063 324.772 235.893V235.893" stroke="#406666" stroke-width="2" stroke-miterlimit="10"/>
<path d="M439.994 34.6467L438.191 40.2351C414.888 112.404 378.35 179.597 330.447 238.372V238.372" stroke="#406666" stroke-width="2" stroke-miterlimit="10"/>
<path d="M463.227 48.2803L460.923 53.6729C431.262 123.476 388.849 187.132 335.859 241.373V241.373" stroke="#406666" stroke-width="2" stroke-miterlimit="10"/>
<path d="M485.131 63.9146L482.349 69.1115C446.551 135.959 398.611 195.543 340.987 244.808V244.808" stroke="#406666" stroke-width="2" stroke-miterlimit="10"/>
<path d="M505.537 81.4841L502.321 86.3984C460.689 149.751 407.629 204.79 345.855 248.7V248.7" stroke="#406666" stroke-width="2" stroke-miterlimit="10"/>
<path d="M524.313 100.794L520.64 105.404C473.489 164.785 415.68 214.842 350.18 253.006V253.006" stroke="#406666" stroke-width="2" stroke-miterlimit="10"/>
<path d="M541.262 121.777L537.199 126.126C484.916 181.041 422.855 225.715 354.199 257.855V257.855" stroke="#406666" stroke-width="2" stroke-miterlimit="10"/>
<path d="M556.276 144.065L551.778 147.87C494.785 197.867 428.973 236.788 357.717 262.639V262.639" stroke="#406666" stroke-width="2" stroke-miterlimit="10"/>
<path d="M569.167 167.68L564.408 171.159C503.163 215.84 434.132 248.706 360.851 268.075V268.075" stroke="#406666" stroke-width="2" stroke-miterlimit="10"/>
<path d="M580.032 192.382L574.99 195.404C509.988 234.415 438.289 260.962 363.566 273.685V273.685" stroke="#406666" stroke-width="2" stroke-miterlimit="10"/>
<path d="M588.527 217.91L583.247 220.476C515.01 253.505 441.217 273.511 365.651 279.47V279.47" stroke="#406666" stroke-width="2" stroke-miterlimit="10"/>
<path d="M594.743 244.134L589.245 246.309C518.321 273.075 443.034 286.385 367.238 285.558V285.558" stroke="#406666" stroke-width="2" stroke-miterlimit="10"/>
<path d="M598.569 270.793L592.919 272.359C519.882 292.668 443.702 299.172 368.282 291.538V291.538" stroke="#406666" stroke-width="2" stroke-miterlimit="10"/>
<path d="M600 297.692L594.22 298.757C519.659 312.42 443.207 312.058 368.779 297.692" stroke="#406666" stroke-width="2" stroke-miterlimit="10"/>
<path d="M599.001 324.611L593.155 325.155C517.677 332.07 441.571 324.851 368.736 303.867V303.867" stroke="#406666" stroke-width="2" stroke-miterlimit="10"/>
<path d="M595.614 351.336H589.747C513.936 351.477 438.763 337.465 368.087 310.021V310.021" stroke="#406666" stroke-width="2" stroke-miterlimit="10"/>
<path d="M589.831 377.646L583.985 377.125C508.518 370.432 434.956 349.734 367.063 316.087V316.087" stroke="#406666" stroke-width="2" stroke-miterlimit="10"/>
<path d="M581.724 403.327L575.944 402.283C501.3 388.888 429.811 361.668 365.15 322.024V322.024" stroke="#406666" stroke-width="2" stroke-miterlimit="10"/>
<path d="M571.34 428.181L565.668 426.615C492.57 406.567 423.848 373.059 363.023 327.808V327.808" stroke="#406666" stroke-width="2" stroke-miterlimit="10"/>
<path d="M558.801 452.013L553.281 449.838C482.278 423.303 416.837 383.763 360.307 333.244V333.244" stroke="#406666" stroke-width="2" stroke-miterlimit="10"/>
<path d="M544.154 474.606L538.851 472.062C470.5 439.273 408.859 394.017 357.09 338.615V338.615" stroke="#406666" stroke-width="2" stroke-miterlimit="10"/>
<path d="M527.529 495.785L522.488 492.762C457.354 453.979 400.018 403.385 353.418 343.572V343.572" stroke="#406666" stroke-width="2" stroke-miterlimit="10"/>
<path d="M509.078 515.356L504.319 511.898C442.926 467.427 390.358 411.892 349.31 348.139V348.139" stroke="#406666" stroke-width="2" stroke-miterlimit="10"/>
<path d="M488.957 533.317L484.611 529.446C427.445 479.644 380.065 419.61 344.9 352.423V352.423" stroke="#406666" stroke-width="2" stroke-miterlimit="10"/>
<path d="M467.31 549.32L463.246 544.971C410.765 490.241 368.949 426.195 339.942 356.119V356.119" stroke="#406666" stroke-width="2" stroke-miterlimit="10"/>
<path d="M444.317 563.324L440.644 558.845C393.285 499.627 357.372 432.094 334.748 359.707V359.707" stroke="#406666" stroke-width="2" stroke-miterlimit="10"/>
<path d="M420.152 575.197L416.914 570.304C375.044 507.081 345.329 436.597 329.293 362.469V362.469" stroke="#406666" stroke-width="2" stroke-miterlimit="10"/>
<path d="M395.032 584.938L392.251 579.763C356.203 513.019 332.921 440.13 323.602 364.839V364.839" stroke="#406666" stroke-width="2" stroke-miterlimit="10"/>
<path d="M369.238 592.266L366.912 586.852C337.007 517.163 320.345 442.507 317.778 366.709V366.709" stroke="#406666" stroke-width="2" stroke-miterlimit="10"/>
<path d="M342.705 597.289L340.879 591.7C317.321 519.606 307.416 443.745 311.672 368.013V368.013" stroke="#406666" stroke-width="2" stroke-miterlimit="10"/>
<path d="M315.909 599.92L314.584 594.18C297.591 520.268 294.525 443.833 305.544 368.796V368.796" stroke="#406666" stroke-width="2" stroke-miterlimit="10"/>
<path d="M288.984 600.159L288.18 594.332C277.883 519.19 281.679 442.786 299.372 369.036V369.036" stroke="#406666" stroke-width="2" stroke-miterlimit="10"/>
<path d="M262.165 597.985L261.882 592.114C258.342 516.34 268.954 440.569 293.175 368.688V368.688" stroke="#406666" stroke-width="2" stroke-miterlimit="10"/>
<path d="M235.632 593.354L235.893 587.483C239.161 511.727 256.524 437.245 287.092 367.862V367.862" stroke="#406666" stroke-width="2" stroke-miterlimit="10"/>
<path d="M209.622 586.395L210.404 580.567C220.447 505.39 244.413 432.746 281.075 366.361V366.361" stroke="#406666" stroke-width="2" stroke-miterlimit="10"/>
<path d="M184.347 577.132L185.651 571.391C202.388 497.422 232.766 427.226 275.227 364.404V364.404" stroke="#406666" stroke-width="2" stroke-miterlimit="10"/>
<path d="M160.009 565.651L161.813 560.041C185.102 487.872 221.642 420.685 269.557 361.925V361.925" stroke="#406666" stroke-width="2" stroke-miterlimit="10"/>
<path d="M136.712 552.016L139.016 546.602C168.686 476.816 211.098 413.177 264.08 358.946V358.946" stroke="#406666" stroke-width="2" stroke-miterlimit="10"/>
<path d="M114.98 536.361L117.762 531.186C153.566 464.342 201.505 404.759 259.124 355.489V355.489" stroke="#406666" stroke-width="2" stroke-miterlimit="10"/>
<path d="M94.4458 518.813L97.5968 513.899C139.216 450.537 192.278 395.495 254.062 351.597V351.597" stroke="#406666" stroke-width="2" stroke-miterlimit="10"/>
<path d="M75.6899 499.503L79.3408 494.893C126.472 435.52 184.25 385.457 249.714 347.269V347.269" stroke="#406666" stroke-width="2" stroke-miterlimit="10"/>
<path d="M58.7383 478.564L62.7803 474.215C115.061 419.298 177.123 374.624 245.78 342.486V342.486" stroke="#406666" stroke-width="2" stroke-miterlimit="10"/>
<path d="M43.7212 456.21L48.0675 452.339C105.063 402.341 170.874 363.413 242.128 337.549V337.549" stroke="#406666" stroke-width="2" stroke-miterlimit="10"/>
<path d="M30.7715 432.595L35.5306 429.138C96.7704 384.449 165.803 351.582 239.088 332.222V332.222" stroke="#406666" stroke-width="2" stroke-miterlimit="10"/>
<path d="M19.9907 407.915L25.0324 404.892C90.028 365.868 161.729 339.321 236.456 326.612V326.612" stroke="#406666" stroke-width="2" stroke-miterlimit="10"/>
<path d="M11.4727 382.365L16.7534 379.799C84.9935 346.785 158.785 326.786 234.349 320.827V320.827" stroke="#406666" stroke-width="2" stroke-miterlimit="10"/>
<path d="M5.25879 356.163L10.7568 353.988C81.6845 327.247 156.973 313.973 232.764 314.848V314.848" stroke="#406666" stroke-width="2" stroke-miterlimit="10"/>
<path d="M1.43457 329.504L7.08471 327.916C80.1187 307.633 156.29 301.144 231.7 308.781V308.781" stroke="#406666" stroke-width="2" stroke-miterlimit="10"/>
<path d="M0 302.605L5.78053 301.54C80.3327 287.866 156.78 288.227 231.2 302.605V302.605" stroke="#406666" stroke-width="2" stroke-miterlimit="10"/>
</g>
<defs>
<clipPath id="clip0_442_11728">
<rect width="600" height="600" fill="white" transform="translate(0 0.159424)"/>
</clipPath>
</defs>
</svg>
