<svg xmlns="http://www.w3.org/2000/svg" xmlns:xlink="http://www.w3.org/1999/xlink"><symbol id="icon__arrow_right" viewBox="0 0 20 20"><g fill="none"><path d="M3 10.5h14m0 0L11 4m6 6.5L11 17"/></g></symbol><symbol id="icon__line_graph" viewBox="0 0 80 80"><path d="M61.264 61.264v-2.65h-5.316v2.65h-5.316v-2.65h-5.316v2.65H40v-2.65h-5.315v2.65h-5.317v-2.65h-5.316v2.65h-5.315v-7.967H21.4v-5.315h-2.664v-5.316H21.4V37.35h-2.664v-5.316H21.4v-5.316h-2.664v-5.316H21.4v-5.316h-2.664v-2.665H13.42v53.158h53.158v-5.316l-5.315.001Z"/><path d="M26.717 29.369h5.316v18.613h-5.316V29.369ZM34.685 18.737H40v21.265h-5.316V18.737ZM42.665 26.717h5.316v15.948h-5.316V26.717ZM50.633 24.052h5.316V37.35h-5.316V24.052ZM58.613 32.034h5.316v15.948h-5.316V32.034Z"/></symbol><symbol id="icon__line_oil" viewBox="0 0 80 80"><path d="M66.517 16.876v-6.628H53.242V6.924h-6.63v3.324H13.484v6.63h3.306v9.933h-3.306v6.63h3.306v16.563h-3.306v6.63h3.306v9.952h-3.306v6.63h53.033v-6.63h-3.324v-9.952h3.324v-6.63h-3.324V33.441h3.324v-6.63h-3.324V16.86h3.324v.017Zm-9.952 49.71H23.42v-49.71h33.145v49.71Z"/><path d="M39.983 56.651c5.48 0 9.952-4.454 9.952-9.952 0-4.19-5.003-12.374-7.16-15.697L40 26.706l-2.776 4.296c-2.156 3.323-7.159 11.508-7.159 15.697-.017 5.48 4.438 9.952 9.918 9.952Zm0-17.43c1.909 3.413 3.288 6.435 3.324 7.478a3.331 3.331 0 0 1-3.324 3.324c-1.82 0-3.324-1.485-3.324-3.306.035-1.043 1.414-4.083 3.324-7.495Z"/></symbol><symbol id="icon__line_sign" viewBox="0 0 80 80"><path d="m13.42 66.58 4.182-28.338 2.736.553c.312.057 8.15 1.446 14.502-4.905l1.885-1.871 11.27 11.27-1.885 1.87c-6.365 6.366-4.962 14.19-4.905 14.516l.51 2.722-28.295 4.182Zm8.662-22.327-2.367 16.018 16.032-2.352c-.07-3.346.567-9.158 4.848-14.545l-3.969-3.969c-5.387 4.281-11.213 4.919-14.544 4.848Z"/><path d="m29.223 47.024 3.759 3.759-3.76 3.759-3.758-3.76 3.759-3.758ZM49.88 52.66 27.34 30.12l16.7-16.7 22.54 22.54-16.7 16.7ZM34.854 30.12 49.88 45.146l9.186-9.186L44.04 20.934l-9.186 9.186Z"/></symbol><symbol id="icon__line_time" viewBox="0 0 80 80"><path d="M66.58 37.321c0-6.38-2.482-12.39-7.003-16.896-4.509-4.523-10.52-7.004-16.898-7.004-6.38 0-12.376 2.481-16.883 6.99-1.772-.426-3.742 0-5.075 1.332l-3.005 3.005c-7.428 7.414-4.99 21.462 5.542 31.98 6.436 6.436 14.176 9.852 20.923 9.852 4.309 0 8.193-1.39 11.085-4.28l2.991-3.006c1.375-1.39 1.8-3.332 1.347-5.103a23.755 23.755 0 0 0 6.975-16.869v-.001Zm-10.76-13.14a18.454 18.454 0 0 1 5.443 13.14c0 4.706-1.758 9.129-4.919 12.574l-5.6-5.6a5.322 5.322 0 0 0-7.512 0l-3.034 3.034c-.78.78-3.374.454-5.67-1.83-2.282-2.31-2.623-4.904-1.872-5.683l3.062-3.063a5.322 5.322 0 0 0 0-7.513l-5.599-5.599c3.445-3.16 7.853-4.905 12.56-4.905 4.961 0 9.625 1.929 13.14 5.444Zm-4.31 34.361c-5.131 5.131-16.344 2.58-24.496-5.571-8.136-8.137-10.689-19.336-5.557-24.467l3.005-3.006 7.5 7.5-3.077 3.075c-3.132 3.175-2.31 8.945 1.872 13.17 4.21 4.21 9.994 5.017 13.183 1.828l3.034-3.033 7.513 7.513 1.332-1.333-4.309 4.324Z"/><path d="m51.263 24.978 3.759 3.759-7.798 7.798-3.76-3.76 7.799-7.797Z"/></symbol><symbol id="icon__shevron_left" viewBox="0 0 24 24"><path d="M14.42 16.59 9.83 12l4.59-4.59L13 6l-6 6 6 6 1.42-1.41Z"/></symbol><symbol id="icon__shevron_right" viewBox="0 0 24 24"><path d="M9.58 16.59 14.17 12 9.58 7.41 11 6l6 6-6 6-1.42-1.41Z"/></symbol><symbol id="icon__socials_tg" viewBox="0 0 40 40"><path d="M9.719 18.693c6.71-2.85 11.185-4.729 13.425-5.636 6.393-2.592 7.72-3.042 8.587-3.057.19-.003.616.043.892.261.233.184.297.433.327.608.031.174.07.572.039.883-.347 3.547-1.846 12.157-2.608 16.13-.323 1.681-.958 2.245-1.573 2.3-1.337.12-2.352-.86-3.647-1.688-2.026-1.294-3.17-2.1-5.138-3.363-2.272-1.46-.799-2.262.496-3.573.34-.344 6.23-5.565 6.343-6.039.015-.059.028-.28-.107-.396-.134-.117-.333-.077-.476-.045-.204.045-3.44 2.13-9.71 6.255-.92.615-1.751.914-2.497.898-.822-.017-2.403-.453-3.578-.825-1.442-.457-2.588-.698-2.488-1.474.052-.404.623-.817 1.713-1.24Z"/></symbol><symbol id="icon__socials_wa"><path d="M15.99 13.786c.237.009.499.02.747.57.17.376.456 1.077.684 1.636.167.412.303.746.338.816.083.165.139.358.028.579l-.047.095a1.868 1.868 0 0 1-.284.455c-.055.064-.113.133-.17.203-.114.138-.229.277-.328.376-.166.164-.34.343-.146.674.194.33.86 1.411 1.846 2.287 1.06.941 1.982 1.34 2.45 1.54.09.04.164.072.218.099.332.165.525.137.719-.083.193-.22.829-.964 1.05-1.295.221-.33.443-.275.747-.165.304.11 1.935.91 2.267 1.074l.182.09c.23.11.387.185.453.296.084.138.084.798-.193 1.57-.277.771-1.631 1.515-2.24 1.57a6.831 6.831 0 0 0-.176.02c-.562.065-1.272.148-3.804-.846-3.12-1.225-5.175-4.26-5.597-4.884l-.07-.102-.004-.005c-.18-.239-1.351-1.798-1.351-3.41 0-1.521.75-2.319 1.096-2.686a9.05 9.05 0 0 0 .065-.069c.224-.255.545-.404.885-.413h.036c.21 0 .417 0 .6.008Z"/><path fill-rule="evenodd" clip-rule="evenodd" d="m6.667 33.333 1.883-6.847a13.145 13.145 0 0 1-1.772-6.606c.003-7.286 5.959-13.213 13.277-13.213 3.523 0 6.901 1.393 9.391 3.873a13.189 13.189 0 0 1 3.887 9.35c-.003 7.286-5.96 13.215-13.277 13.215h-.006c-2.217 0-4.398-.554-6.345-1.609l-7.038 1.837Zm7.364-4.23.404.238a11.06 11.06 0 0 0 5.617 1.532h.004c6.082 0 11.033-4.928 11.035-10.984.003-6.067-4.936-10.988-11.031-10.99-6.087 0-11.038 4.926-11.04 10.982a10.918 10.918 0 0 0 1.687 5.845l.263.415-1.115 4.053 4.176-1.09Z"/></symbol><symbol id="icon__solid_cart" viewBox="0 0 35 35"><path d="M8.783 24.478V.058H.057v3.49h5.237v24.419h29.649v-3.489H8.783ZM13.137 29.715a2.617 2.617 0 0 0-2.614 2.614 2.617 2.617 0 0 0 2.614 2.614 2.617 2.617 0 0 0 2.614-2.614 2.599 2.599 0 0 0-2.614-2.614ZM27.09 29.715a2.617 2.617 0 0 0-2.613 2.614 2.617 2.617 0 0 0 2.614 2.614 2.617 2.617 0 0 0 2.614-2.614 2.599 2.599 0 0 0-2.614-2.614Z"/><path d="M12.272 3.546h17.443V20.99H12.272V3.546Z"/></symbol><symbol id="icon__solid_delivery" viewBox="0 0 35 35"><path d="M13.137 24.248a2.617 2.617 0 0 0-2.614 2.614 2.617 2.617 0 0 0 2.614 2.614 2.617 2.617 0 0 0 2.614-2.614 2.604 2.604 0 0 0-2.614-2.614Z"/><path d="M29.715 8.544h-5.237V5.056H5.295v3.489H1.807l-1.75 1.748 1.75 1.75h3.488v3.488H3.546L1.797 17.28c.68.68 1.06 1.06 1.75 1.74h1.748v6.968h3.573a4.36 4.36 0 0 1 4.27-3.49 4.353 4.353 0 0 1 4.27 3.49h7.154a4.361 4.361 0 0 1 4.27-3.49 4.353 4.353 0 0 1 4.27 3.49h1.833l-.001-12.206a5.22 5.22 0 0 0-5.219-5.238Zm1.74 8.726h-5.238v-5.228h3.489c.958 0 1.75.782 1.75 1.74l-.001 3.488Z"/><path d="M28.84 24.248a2.617 2.617 0 0 0-2.614 2.614 2.617 2.617 0 0 0 2.614 2.614 2.617 2.617 0 0 0 2.614-2.614 2.616 2.616 0 0 0-2.614-2.614Z"/></symbol><symbol id="icon__solid_diesel" viewBox="0 0 60 60"><path d="M34.785 25.764H28.77L19.3 19.682c-.853-.547-1.765-.655-2.037-.24-.272.414.198 1.194 1.051 1.741l4.838 3.107s.941.56.941 2.687v8.248c0 .371-.28.758-.4.973l-5.806 10.36c-.493.879-.538 1.785-.1 2.025.436.24 1.19-.279 1.683-1.157l3.755-6.698s.646-.998 2.095-.998h6.014l9.471 6.082c.853.548 1.764.655 2.037.242.272-.415-.198-1.195-1.051-1.742l-4.839-3.108s-.94-.56-.94-2.687v-8.248c0-.37.28-.758.4-.972l5.806-10.36c.493-.88.538-1.786.1-2.025-.436-.24-1.19.278-1.683 1.157l-3.754 6.699s-.647.997-2.095.997Zm-8.956-13.028h9.192c.254 0 .68-.205.953-.456l2.663-2.46c.272-.252.286-.456.032-.456H27.363c-.254 0-.553.204-.668.456l-1.12 2.46c-.113.252 0 .456.254.456Zm-11.464-.152a.151.151 0 0 1 .067-.204L19.152 10a.154.154 0 0 1 .207.066l.365.708a.151.151 0 0 1-.067.205l-.07.035.9 1.74a.463.463 0 0 0 .617.199l.621-.312 2.962-4.619-.036.049c.398-.652 1.318-1.07 2.381-1.07L43.165 7C45.283 7 47 8.698 47 10.792v38.416C47 51.3 45.283 53 43.165 53h-26.33C14.717 53 13 51.302 13 49.208V19.51c0-1.83.594-2.716 2.783-3.887a.452.452 0 0 0 .128-.567l-.895-1.738-.08.04a.154.154 0 0 1-.206-.067l-.365-.707ZM25.69 28.119c0-.503.412-.91.92-.91h6.872c.507 0 .92.407.92.91v9.256c0 .502-.412.91-.92.91h-6.872a.915.915 0 0 1-.92-.91v-9.256Z"/></symbol><symbol id="icon__solid_face" viewBox="0 0 35 35"><path d="M17.79.057C9.12.057 2.087 7.862 2.087 17.5c0 9.638 7.033 17.443 15.703 17.443 8.67 0 15.703-7.805 15.703-17.443C33.493 7.862 26.46.057 17.79.057Zm0 31.398c-6.735 0-12.215-6.261-12.215-13.955 0-1.368.177-2.688.503-3.935.949.279 1.944.447 2.986.447 4.67 0 8.623-3.06 9.973-7.284 1.758 3.293 5.219 5.544 9.219 5.544.279 0 .558-.018.827-.046.587 1.628.912 3.405.912 5.274.01 7.694-5.47 13.954-12.206 13.954h.001Z"/><path d="M14.302 18.375a2.614 2.614 0 1 1-5.228 0 2.614 2.614 0 0 1 5.228 0ZM26.507 18.375a2.614 2.614 0 1 1-5.228 0 2.614 2.614 0 0 1 5.228 0ZM12.563 24.478c0 1.926 2.344 3.489 5.237 3.489 2.893 0 5.237-1.563 5.237-3.489H12.563Z"/></symbol><symbol id="icon__solid_gas" viewBox="0 0 60 60"><path fill-rule="evenodd" clip-rule="evenodd" d="M21.159 13.124c-3.328 0-6.01 2.678-6.159 6.013h29.95c-.149-3.335-2.83-6.013-6.159-6.013h-1.49V8.476h1.39a1.23 1.23 0 0 0 1.243-1.213c0-.657-.547-1.263-1.242-1.263H21.258c-.646 0-1.192.556-1.192 1.263a1.24 1.24 0 0 0 1.242 1.263h1.39v4.649h-1.54v-.051Zm3.924-4.648h9.834v4.648h-3.924v-1.162h.398c.546 0 .993-.455.993-1.01 0-.556-.447-1.011-.993-1.011h-2.782c-.546 0-.993.454-.993 1.01s.447 1.011.993 1.011h.398v1.162h-3.874V8.476h-.05ZM15 21.613v20.868h30V21.613H15Zm15.447 17.23h-.894c-2.285 0-4.222-1.668-4.57-3.992-.149-.96-.099-2.02.2-3.031.049-.101.198-.101.247 0 .15.454.547 1.263 1.143 1.667.546.354.645 0 .348-1.01-.249-.96-.746-3.133-.15-4.599.05-.1.15-.1.2 0 .446.96.993 1.617 1.49 2.021 0 0-.2-2.93 1.688-4.598.099-.05.199 0 .199.1-.15.86.05 1.971.397 2.78.695 1.515.496 2.374.496 2.374s1.044-.858.795-2.526c0-.1.1-.202.199-.1.795.808 1.59 2.172.894 4.193-.596 1.82-.298 2.223.149 1.87.348-.303.844-.86.944-1.97 0-.102.149-.153.198-.051.05.076.087.151.124.227.038.076.075.151.125.227 1.39 3.032-.993 6.418-4.222 6.418Z"/><path d="M19.52 50.716a6.193 6.193 0 0 1-4.52-5.76h29.951a6.194 6.194 0 0 1-4.52 5.76v.455c0 1.566-1.241 2.829-2.781 2.829H22.302c-1.54 0-2.782-1.263-2.782-2.83v-.454Z"/></symbol><symbol id="icon__solid_kerosene" viewBox="0 0 60 60"><path d="m42.978 38.11-1.965-22.851c-.065-4.448-2.908-5.802-4.12-6.179L36.371 6H23.857l-.307 2.96c-.612.12-4.497 1.091-4.573 6.298L17.011 38.11s-.427 3.803 4.116 5.898l-.3.44v2.383c0 .2-.528.725-.64.908-.257.418-.479.844-.589 1.324-.598 2.594 3.134 3.65 4.955 4.19 2.74.812 5.712.909 8.536.55 2.586-.33 8.734-1.239 7.082-5.367-.152-.382-.304-.776-.554-1.105-.207-.274-.676-.43-.811-.692-.198-.384.006-1.404.006-1.85l-.197-.436c4.956-2.006 4.363-6.242 4.363-6.242ZM26.48 40.36l-3.063.273-.018.027c-.462-.128-2.394-.778-2.538-2.796l2.332-24.08s-.072-.004.175-.332l1.67 1.636v1.259S21.714 32.442 22.531 33.8c0 0 .409 3.658 3.168 4.912 0 0 .307.068.814.153h-.033v1.494Zm1.641-6.936c.683-4.067 3.373-2.242 3.373-2.242.586.447 1.311 2.717 1.283 4.603-.017 1.184-.648 2.148-1.879 2.276-1.014.106-2.531-.186-2.946-1.237-.365-.92.005-2.441.17-3.4Zm8.889 7.092-3.127.11-.024-1.897c.61-.201 1.164-.477 1.615-.851 0 0 3.474-3.762 2.078-9.128l-1.653-12.403v-1.023l.92-1.314 2.31 23.854c-.116 1.622-1.384 2.358-2.12 2.652Z"/></symbol><symbol id="icon__solid_oil" viewBox="0 0 35 35"><path d="M31.934 14.012c0-.968-.78-1.749-1.749-1.749V6.16c.959 0 1.75-.78 1.75-1.749 0-.967-.782-1.749-1.75-1.749H14.492V.058H9.254v2.614H5.766c-.968 0-1.75.781-1.75 1.749 0 .968.782 1.749 1.75 1.749v6.102c-.968 0-1.75.782-1.75 1.75 0 .967.782 1.749 1.75 1.749v5.237c-.968 0-1.75.781-1.75 1.749 0 .968.782 1.75 1.75 1.75v6.976c-.968 0-1.75.781-1.75 1.75 0 .967.782 1.748 1.75 1.748h24.42c.957 0 1.748-.781 1.748-1.749 0-.968-.781-1.749-1.749-1.749v-6.977c.958 0 1.75-.781 1.75-1.749 0-.968-.782-1.75-1.75-1.75v-5.236a1.762 1.762 0 0 0 1.75-1.759ZM17.98 27.966a5.237 5.237 0 0 1-5.238-5.238c.01-2.884 5.238-12.205 5.238-12.205s5.237 9.321 5.237 12.215a5.234 5.234 0 0 1-5.237 5.227Z"/></symbol><symbol id="icon__solid_petrol" viewBox="0 0 60 60"><path d="M45.35 11.107h-3.542V7.565a1.183 1.183 0 0 0-1.181-1.181h-7.085a1.183 1.183 0 0 0-1.18 1.18v3.543h-5.905a1.19 1.19 0 0 0-.738.259L13.911 18.45c-.28.224-.443.563-.442.922v33.063a1.177 1.177 0 0 0 1.18 1.18h30.7a1.182 1.182 0 0 0 1.182-1.18V12.289a1.183 1.183 0 0 0-1.181-1.181ZM39.1 44.515a1.183 1.183 0 0 1-.831 2.026 1.18 1.18 0 0 1-.838-.356l-4.377-4.377h-6.107l-4.378 4.377a1.18 1.18 0 0 1-1.67-1.67l4.378-4.377V34.03l-4.378-4.377a1.18 1.18 0 0 1 1.67-1.67l4.378 4.377h6.107l4.377-4.377a1.181 1.181 0 0 1 1.67 1.67l-4.378 4.377v6.107l4.378 4.377Z"/></symbol><symbol id="icon__solid_pin" viewBox="0 0 35 35"><path d="M17.27.057A12.205 12.205 0 0 0 5.055 12.272c0 6.736 12.215 22.68 12.215 22.68s12.215-15.944 12.215-22.68c0-6.754-5.47-12.215-12.215-12.215Zm0 19.155c-3.833 0-6.94-3.126-6.94-6.94a6.94 6.94 0 0 1 13.88 0c0 3.814-3.107 6.94-6.94 6.94Z"/></symbol><symbol id="icon__solid_pipe" viewBox="0 0 50 40"><path fill-rule="evenodd" clip-rule="evenodd" d="M11 28.97v1.53H5l-1.03-1.53C2.756 26.55 1.988 24.533 2 21.756c.014-3.214 1.234-6.14 3-8.756h6v1.552h10V13h3v-2h-5V9h12v2h-5v2h3v1.552h9.805V13h6c1.767 2.616 2.986 5.542 3 8.756.012 2.777-.756 4.794-1.97 7.214l-1.03 1.53h-6v-1.53H11ZM5.735 26.14c-.621-1.465-.923-2.924-.916-4.374.01-2.105.696-3.955 1.681-5.767H9v1.381h14V16h4v1.381h13.805V16h2.5c.985 1.812 1.672 3.662 1.68 5.767.008 1.45-.293 2.91-.914 4.374l-.766 1.359h-2.5v-1.359H9V27.5H6.5l-.765-1.359Z"/></symbol><symbol id="icon__solid_shield" viewBox="0 0 35 35"><path d="M17.27.057S10.293 7.034 5.055 7.034V20.99c0 5.237 7.191 10.503 12.215 13.955 5.024-3.452 12.215-8.726 12.215-13.955V7.034C24.247 7.034 17.27.057 17.27.057Zm-3.488 24.42L8.544 19.24 11 16.765l2.772 2.772 9.73-9.75 2.475 2.475-12.195 12.215Z"/></symbol><symbol id="icon__solid_tank" viewBox="0 0 50 40"><path fill-rule="evenodd" clip-rule="evenodd" d="M32.766 20.673h3.618v1.575h-3.618v-1.575Zm0-3.579h3.618v1.575h-3.618v-1.575Zm0-3.446h3.618v1.44h-3.618v-1.44ZM19.621 29.494h10.756a2.268 2.268 0 0 0 2.153 2.965c.983 0 1.82-.627 2.133-1.504H36.4a2.264 2.264 0 0 0 4.285-1.461h2.722v-.608h.763v.608H45V27.22h-.83v.608h-.762v-.608h-.787c.892-2.257 1.322-4.522 1.312-6.791-.014-3.36-.913-6.068-2.342-9.055H29.7V9.163h-9.4v2.212H8.408c-1.426 2.99-2.326 5.692-2.341 9.055-.01 2.27.42 4.534 1.313 6.791h-.788v.608h-.763v-.608H5v2.273h.83v-.608h.762v.608h2.723a2.267 2.267 0 0 0 2.152 2.966c.984 0 1.821-.628 2.134-1.505h1.737a2.264 2.264 0 0 0 4.284-1.461Zm11.14-15.846v11.815h2.005v-1.21h3.618v1.21h2.004V13.648h1.759c.996 2.277 1.512 4.54 1.522 6.79.01 2.252-.485 4.514-1.51 6.783H9.84c-1.024-2.27-1.52-4.53-1.51-6.782.01-2.25.528-4.514 1.523-6.791H30.76Z"/></symbol><symbol id="icon__solid_truck" viewBox="0 0 50 40"><path fill-rule="evenodd" clip-rule="evenodd" d="M22.03 28.015c.546 0 .988.443.988.99a.979.979 0 0 1-.988.987.989.989 0 0 1 0-1.977Zm6.512.99a.99.99 0 1 1 1.979 0 .99.99 0 0 1-1.979 0Zm13.762 0a.98.98 0 0 1 .989-.99c.547 0 .989.443.989.99a.98.98 0 0 1-.99.987.986.986 0 0 1-.988-.988Zm-1.102-8.607h-3.53v-1.826h2.806l.724 1.826Zm-3.53 6.607v-3.778h9.5v3.784h-1.02a3.48 3.48 0 0 0-5.71-.006h-2.77Zm-6.685-9.873c.007 1.451-.292 2.91-.915 4.374H3.735c-.621-1.465-.923-2.924-.915-4.374.006-1.45.32-2.913.93-4.386h26.31c.607 1.473.922 2.936.928 4.386ZM1.97 24.335h29.865c1.215-2.419 1.983-4.438 1.97-7.214-.012-2.746-.785-4.793-1.952-7.204h-5.386V8.365H21.33v1.552h-8.854V8.365H7.339v1.552H1.952C.786 12.331.012 14.373 0 17.121c-.012 2.777.756 4.794 1.97 7.214Zm8.582 4.67c0-.554.437-.99.99-.99.548 0 .987.438.987.99a.988.988 0 1 1-1.977 0Zm-5.705 0a.98.98 0 0 1-.989.987.983.983 0 0 1-.988-.988.988.988 0 1 1 1.977 0Zm10.179 0a3.489 3.489 0 0 0-3.485-3.486 3.49 3.49 0 0 0-2.853 1.487H6.714a3.485 3.485 0 1 0 .53 2.829h.913a3.485 3.485 0 0 0 6.869-.83Zm7.004 3.484a3.497 3.497 0 0 0 3.384-2.653h.734a3.485 3.485 0 0 0 6.769-.001h6.99a3.485 3.485 0 0 0 3.386 2.654 3.498 3.498 0 0 0 3.386-2.66H50v-9.43h-5.767l-1.847-4.656H37.67v-2.998h-2.829v14.261h-2.455a3.51 3.51 0 0 0-2.855-1.486 3.482 3.482 0 0 0-2.856 1.487h-1.791a3.48 3.48 0 0 0-2.855-1.487 3.494 3.494 0 0 0-3.486 3.485 3.488 3.488 0 0 0 3.487 3.485Z"/></symbol><symbol id="img__logo" viewBox="0 0 185 35"><g fill="none"><path fill-rule="evenodd" clip-rule="evenodd" d="M180.905 12.546v2.79h.651v-.94h.561l.466.94h.715l-.558-1.078a.968.968 0 0 0 .308-.294.894.894 0 0 0 .144-.514.87.87 0 0 0-.138-.501.887.887 0 0 0-.345-.303.933.933 0 0 0-.41-.1h-1.394Zm.651 1.369h.529c.09 0 .181-.04.269-.118.091-.078.135-.193.135-.348 0-.162-.044-.27-.135-.332a.452.452 0 0 0-.259-.092h-.539v.89Z" fill="#fff"/><path fill-rule="evenodd" clip-rule="evenodd" d="M180.798 16.765a2.95 2.95 0 0 0 1.176.235c.419 0 .812-.078 1.177-.235a3.045 3.045 0 0 0 1.613-1.614c.156-.366.236-.757.236-1.176 0-.42-.08-.81-.236-1.175a3.045 3.045 0 0 0-1.613-1.615 2.964 2.964 0 0 0-1.177-.234c-.418 0-.81.078-1.176.234a3.031 3.031 0 0 0-1.613 1.615 2.957 2.957 0 0 0-.235 1.175c0 .419.079.81.235 1.176.156.366.373.687.65.963.277.277.597.495.963.651Zm2.321-.823a2.185 2.185 0 0 1-1.145.31c-.418 0-.799-.104-1.146-.31a2.33 2.33 0 0 1-.823-.823 2.202 2.202 0 0 1-.307-1.144c0-.42.103-.798.307-1.143.204-.344.479-.62.823-.825a2.197 2.197 0 0 1 1.146-.307c.419 0 .801.1 1.145.307.343.205.618.48.821.825.205.345.306.723.306 1.143 0 .419-.101.8-.306 1.144a2.324 2.324 0 0 1-.821.823Z" fill="#fff"/><path d="m50.077 15.762 4.149-4.148 11.32.001 5.66 5.661-.002 8.003-5.66 5.66-11.32-.001-4.19-4.191 2.344-2.344 3.22 3.219 8.573.002 3.718-3.718v-.973H57.25l-3.316-3.314h13.956v-.97l-3.716-3.719h-8.574l-3.178 3.177-2.344-2.345ZM76.243 30.939V11.614h3.315V30.94h-3.315ZM80.09 19.619h13.325v-8.005h3.315V30.94h-3.315v-8.006h-10.01l-3.316-3.314Z" fill="#fff"/><path fill-rule="evenodd" clip-rule="evenodd" d="m124.407 17.273-5.661-5.659-11.32.001-5.659 5.661v8.003l5.661 5.66 11.32-.001 5.659-5.661v-8.004ZM108.8 14.93h8.573l3.718 3.717.001 5.257-3.718 3.718-8.573.002-3.719-3.718v-5.258l3.718-3.718ZM129.444 11.614v19.324h17.709l3.316-3.314.001-4.69-2.345-2.345.971-.971v-4.69l-3.316-3.314h-16.336Zm3.315 16.009V14.929h11.648l1.374 1.374v1.941l-1.374 1.374h-11.116l3.315 3.316h9.176l1.372 1.374v1.941l-1.373 1.374h-13.022Z" fill="#fff"/><path d="m158.051 14.93-4.29 16.009h3.433l4.289-16.01h8.932l2.146 8.004H160.19l3.315 3.316h9.944l1.257 4.69h3.432l-4.29-16.01-3.316-3.315-9.168.001-3.313 3.314Z" fill="#fff"/><path d="m24.377 3.608-2.345-2.344h-3.315l-2.344 2.344v3.316l2.344 2.344h3.315l2.345-2.344V3.608ZM8.368 11.612l2.344-2.344h3.316l2.345 2.344v3.316l2.344 2.344h3.315l2.345-2.344v-3.316l2.345-2.344h3.315l2.344 2.344v3.316l-2.345 2.344h-3.315l-2.344 2.345v3.316l2.345 2.345h3.314l2.345-2.345v-3.316l2.345-2.345h3.315l2.345 2.345v3.316l-2.345 2.345h-3.316l-2.344 2.344v3.315l-2.345 2.345h-3.314l-2.345-2.345v-3.315l-2.345-2.345h-3.315l-2.344 2.345v3.315l-2.345 2.345h-3.315l-2.345-2.345v-3.315l-2.345-2.345H2.708L.363 22.933v-3.315l2.344-2.345h3.316l2.345 2.345v3.316l2.345 2.345h3.315l2.345-2.345v-3.316l-2.345-2.345h-3.315l-2.345-2.344v-3.316Z" fill="#3C9"/></g></symbol>
</svg>